solid OpenSCAD_Model
  facet normal 0 1 0
    outer loop
      vertex 13 25.35 -635.3
      vertex 10 25.35 -649.3
      vertex 10 25.35 -635.3
    endloop
  endfacet
  facet normal 0 1 -0
    outer loop
      vertex 13 25.35 -655.3
      vertex 10 25.35 -649.3
      vertex 13 25.35 -635.3
    endloop
  endfacet
  facet normal 0 1 0
    outer loop
      vertex 6.22 25.35 -655.3
      vertex 10 25.35 -649.3
      vertex 13 25.35 -655.3
    endloop
  endfacet
  facet normal 0 1 0
    outer loop
      vertex 10 25.35 -649.3
      vertex 6.22 25.35 -655.3
      vertex 6.22 25.35 -649.3
    endloop
  endfacet
  facet normal -1 0 0
    outer loop
      vertex 10 24.0048 -638.278
      vertex 10 25.35 -635.3
      vertex 10 25.35 -649.3
    endloop
  endfacet
  facet normal -1 0 0
    outer loop
      vertex 10 25.35 -635.3
      vertex 10 24.076 -638.044
      vertex 10 24.1 -637.8
    endloop
  endfacet
  facet normal -1 0 0
    outer loop
      vertex 10 25.35 -635.3
      vertex 10 24.0048 -638.278
      vertex 10 24.076 -638.044
    endloop
  endfacet
  facet normal -1 0 0
    outer loop
      vertex 10 25.35 -649.3
      vertex 10 23.8893 -638.494
      vertex 10 24.0048 -638.278
    endloop
  endfacet
  facet normal -1 0 0
    outer loop
      vertex 10 25.35 -649.3
      vertex 10 23.7339 -638.684
      vertex 10 23.8893 -638.494
    endloop
  endfacet
  facet normal -1 0 0
    outer loop
      vertex 10 25.35 -649.3
      vertex 10 23.5445 -638.839
      vertex 10 23.7339 -638.684
    endloop
  endfacet
  facet normal -1 0 0
    outer loop
      vertex 10 25.35 -649.3
      vertex 10 23.3284 -638.955
      vertex 10 23.5445 -638.839
    endloop
  endfacet
  facet normal -1 0 0
    outer loop
      vertex 10 25.35 -649.3
      vertex 10 23.0939 -639.026
      vertex 10 23.3284 -638.955
    endloop
  endfacet
  facet normal -1 0 0
    outer loop
      vertex 10 25.35 -649.3
      vertex 10 22.85 -639.05
      vertex 10 23.0939 -639.026
    endloop
  endfacet
  facet normal -1 0 0
    outer loop
      vertex 10 25.35 -649.3
      vertex 10 22.6061 -639.026
      vertex 10 22.85 -639.05
    endloop
  endfacet
  facet normal -1 0 0
    outer loop
      vertex 10 25.35 -649.3
      vertex 10 22.3716 -638.955
      vertex 10 22.6061 -639.026
    endloop
  endfacet
  facet normal -1 0 0
    outer loop
      vertex 10 25.35 -649.3
      vertex 10 22.1555 -638.839
      vertex 10 22.3716 -638.955
    endloop
  endfacet
  facet normal -1 0 0
    outer loop
      vertex 10 13.5445 -638.839
      vertex 10 22.1555 -638.839
      vertex 10 25.35 -649.3
    endloop
  endfacet
  facet normal -1 0 0
    outer loop
      vertex 10 22.1555 -638.839
      vertex 10 13.5445 -638.839
      vertex 10 21.9661 -638.684
    endloop
  endfacet
  facet normal -1 0 -0
    outer loop
      vertex 10 13.7339 -638.684
      vertex 10 21.9661 -638.684
      vertex 10 13.5445 -638.839
    endloop
  endfacet
  facet normal -1 0 0
    outer loop
      vertex 10 21.624 -638.044
      vertex 10 14.1 -637.8
      vertex 10 21.6 -637.8
    endloop
  endfacet
  facet normal -1 0 0
    outer loop
      vertex 10 14.076 -638.044
      vertex 10 21.624 -638.044
      vertex 10 21.6952 -638.278
    endloop
  endfacet
  facet normal -1 0 0
    outer loop
      vertex 10 21.9661 -638.684
      vertex 10 13.7339 -638.684
      vertex 10 21.8107 -638.494
    endloop
  endfacet
  facet normal -1 0 0
    outer loop
      vertex 10 21.624 -638.044
      vertex 10 14.076 -638.044
      vertex 10 14.1 -637.8
    endloop
  endfacet
  facet normal -1 0 0
    outer loop
      vertex 10 21.6952 -638.278
      vertex 10 14.0049 -638.278
      vertex 10 14.076 -638.044
    endloop
  endfacet
  facet normal -1 -0 0
    outer loop
      vertex 10 21.6952 -638.278
      vertex 10 13.8893 -638.494
      vertex 10 14.0049 -638.278
    endloop
  endfacet
  facet normal -1 0 0
    outer loop
      vertex 10 21.8107 -638.494
      vertex 10 13.8893 -638.494
      vertex 10 21.6952 -638.278
    endloop
  endfacet
  facet normal -1 0 -0
    outer loop
      vertex 10 13.8893 -638.494
      vertex 10 21.8107 -638.494
      vertex 10 13.7339 -638.684
    endloop
  endfacet
  facet normal -1 0 0
    outer loop
      vertex 10 10.35 -649.3
      vertex 10 13.5445 -638.839
      vertex 10 25.35 -649.3
    endloop
  endfacet
  facet normal -1 0 0
    outer loop
      vertex 10 13.5445 -638.839
      vertex 10 10.35 -649.3
      vertex 10 13.3284 -638.955
    endloop
  endfacet
  facet normal -1 0 0
    outer loop
      vertex 10 13.3284 -638.955
      vertex 10 10.35 -649.3
      vertex 10 13.0939 -639.026
    endloop
  endfacet
  facet normal -1 0 0
    outer loop
      vertex 10 13.0939 -639.026
      vertex 10 10.35 -649.3
      vertex 10 12.85 -639.05
    endloop
  endfacet
  facet normal -1 -0 0
    outer loop
      vertex 10 12.85 -639.05
      vertex 10 10.35 -649.3
      vertex 10 12.6061 -639.026
    endloop
  endfacet
  facet normal -1 -0 0
    outer loop
      vertex 10 12.6061 -639.026
      vertex 10 10.35 -649.3
      vertex 10 12.3716 -638.955
    endloop
  endfacet
  facet normal -1 0 0
    outer loop
      vertex 10 11.6952 -638.278
      vertex 10 10.35 -635.3
      vertex 10 11.624 -638.044
    endloop
  endfacet
  facet normal -1 0 0
    outer loop
      vertex 10 10.35 -635.3
      vertex 10 11.6952 -638.278
      vertex 10 10.35 -649.3
    endloop
  endfacet
  facet normal -1 -0 0
    outer loop
      vertex 10 11.8107 -638.494
      vertex 10 10.35 -649.3
      vertex 10 11.6952 -638.278
    endloop
  endfacet
  facet normal -1 -0 0
    outer loop
      vertex 10 11.9661 -638.684
      vertex 10 10.35 -649.3
      vertex 10 11.8107 -638.494
    endloop
  endfacet
  facet normal -1 -0 0
    outer loop
      vertex 10 12.1555 -638.839
      vertex 10 10.35 -649.3
      vertex 10 11.9661 -638.684
    endloop
  endfacet
  facet normal -1 -0 0
    outer loop
      vertex 10 12.3716 -638.955
      vertex 10 10.35 -649.3
      vertex 10 12.1555 -638.839
    endloop
  endfacet
  facet normal -1 0 0
    outer loop
      vertex 10 24.076 -637.556
      vertex 10 25.35 -635.3
      vertex 10 24.1 -637.8
    endloop
  endfacet
  facet normal -1 0 0
    outer loop
      vertex 10 24.0048 -637.322
      vertex 10 25.35 -635.3
      vertex 10 24.076 -637.556
    endloop
  endfacet
  facet normal -1 0 0
    outer loop
      vertex 10 23.8893 -637.106
      vertex 10 25.35 -635.3
      vertex 10 24.0048 -637.322
    endloop
  endfacet
  facet normal -1 0 0
    outer loop
      vertex 10 23.7339 -636.916
      vertex 10 25.35 -635.3
      vertex 10 23.8893 -637.106
    endloop
  endfacet
  facet normal -1 0 0
    outer loop
      vertex 10 23.5445 -636.761
      vertex 10 25.35 -635.3
      vertex 10 23.7339 -636.916
    endloop
  endfacet
  facet normal -1 0 0
    outer loop
      vertex 10 23.3284 -636.645
      vertex 10 25.35 -635.3
      vertex 10 23.5445 -636.761
    endloop
  endfacet
  facet normal -1 0 0
    outer loop
      vertex 10 23.0939 -636.574
      vertex 10 25.35 -635.3
      vertex 10 23.3284 -636.645
    endloop
  endfacet
  facet normal -1 0 0
    outer loop
      vertex 10 22.85 -636.55
      vertex 10 25.35 -635.3
      vertex 10 23.0939 -636.574
    endloop
  endfacet
  facet normal -1 0 0
    outer loop
      vertex 10 22.6061 -636.574
      vertex 10 25.35 -635.3
      vertex 10 22.85 -636.55
    endloop
  endfacet
  facet normal -1 0 0
    outer loop
      vertex 10 22.3716 -636.645
      vertex 10 25.35 -635.3
      vertex 10 22.6061 -636.574
    endloop
  endfacet
  facet normal -1 0 0
    outer loop
      vertex 10 14.1 -637.8
      vertex 10 21.624 -637.556
      vertex 10 21.6 -637.8
    endloop
  endfacet
  facet normal -1 0 0
    outer loop
      vertex 10 14.076 -637.556
      vertex 10 21.624 -637.556
      vertex 10 14.1 -637.8
    endloop
  endfacet
  facet normal -1 0 0
    outer loop
      vertex 10 21.624 -637.556
      vertex 10 14.076 -637.556
      vertex 10 21.6952 -637.322
    endloop
  endfacet
  facet normal -1 0 0
    outer loop
      vertex 10 14.0049 -637.322
      vertex 10 21.6952 -637.322
      vertex 10 14.076 -637.556
    endloop
  endfacet
  facet normal -1 0 0
    outer loop
      vertex 10 21.6952 -637.322
      vertex 10 14.0049 -637.322
      vertex 10 21.8107 -637.106
    endloop
  endfacet
  facet normal -1 0 0
    outer loop
      vertex 10 13.8893 -637.106
      vertex 10 21.8107 -637.106
      vertex 10 14.0049 -637.322
    endloop
  endfacet
  facet normal -1 0 0
    outer loop
      vertex 10 21.8107 -637.106
      vertex 10 13.8893 -637.106
      vertex 10 21.9661 -636.916
    endloop
  endfacet
  facet normal -1 0 0
    outer loop
      vertex 10 13.7339 -636.916
      vertex 10 21.9661 -636.916
      vertex 10 13.8893 -637.106
    endloop
  endfacet
  facet normal -1 0 0
    outer loop
      vertex 10 21.9661 -636.916
      vertex 10 13.7339 -636.916
      vertex 10 22.1555 -636.761
    endloop
  endfacet
  facet normal -1 0 0
    outer loop
      vertex 10 13.5445 -636.761
      vertex 10 22.1555 -636.761
      vertex 10 13.7339 -636.916
    endloop
  endfacet
  facet normal -1 0 0
    outer loop
      vertex 10 22.1555 -636.761
      vertex 10 13.5445 -636.761
      vertex 10 22.3716 -636.645
    endloop
  endfacet
  facet normal -1 0 0
    outer loop
      vertex 10 13.3284 -636.645
      vertex 10 22.3716 -636.645
      vertex 10 13.5445 -636.761
    endloop
  endfacet
  facet normal -1 0 0
    outer loop
      vertex 10 22.3716 -636.645
      vertex 10 13.3284 -636.645
      vertex 10 25.35 -635.3
    endloop
  endfacet
  facet normal -1 0 0
    outer loop
      vertex 10 10.35 -635.3
      vertex 10 13.3284 -636.645
      vertex 10 13.0939 -636.574
    endloop
  endfacet
  facet normal -1 0 0
    outer loop
      vertex 10 10.35 -635.3
      vertex 10 13.0939 -636.574
      vertex 10 12.85 -636.55
    endloop
  endfacet
  facet normal -1 0 0
    outer loop
      vertex 10 10.35 -635.3
      vertex 10 12.85 -636.55
      vertex 10 12.6061 -636.574
    endloop
  endfacet
  facet normal -1 0 0
    outer loop
      vertex 10 11.624 -638.044
      vertex 10 10.35 -635.3
      vertex 10 11.6 -637.8
    endloop
  endfacet
  facet normal -1 0 0
    outer loop
      vertex 10 13.3284 -636.645
      vertex 10 10.35 -635.3
      vertex 10 25.35 -635.3
    endloop
  endfacet
  facet normal -1 0 0
    outer loop
      vertex 10 12.3716 -636.645
      vertex 10 10.35 -635.3
      vertex 10 12.6061 -636.574
    endloop
  endfacet
  facet normal -1 0 0
    outer loop
      vertex 10 12.1555 -636.761
      vertex 10 10.35 -635.3
      vertex 10 12.3716 -636.645
    endloop
  endfacet
  facet normal -1 0 0
    outer loop
      vertex 10 11.9661 -636.916
      vertex 10 10.35 -635.3
      vertex 10 12.1555 -636.761
    endloop
  endfacet
  facet normal -1 0 0
    outer loop
      vertex 10 11.8107 -637.106
      vertex 10 10.35 -635.3
      vertex 10 11.9661 -636.916
    endloop
  endfacet
  facet normal -1 0 0
    outer loop
      vertex 10 11.6952 -637.322
      vertex 10 10.35 -635.3
      vertex 10 11.8107 -637.106
    endloop
  endfacet
  facet normal -1 0 0
    outer loop
      vertex 10 11.624 -637.556
      vertex 10 10.35 -635.3
      vertex 10 11.6952 -637.322
    endloop
  endfacet
  facet normal -1 0 0
    outer loop
      vertex 10 11.6 -637.8
      vertex 10 10.35 -635.3
      vertex 10 11.624 -637.556
    endloop
  endfacet
  facet normal 0 -1 0
    outer loop
      vertex 6.22 10.35 -649.3
      vertex 6.22 10.35 -655.3
      vertex 10 10.35 -649.3
    endloop
  endfacet
  facet normal 0 -1 0
    outer loop
      vertex 10 10.35 -649.3
      vertex 13 10.35 -635.3
      vertex 10 10.35 -635.3
    endloop
  endfacet
  facet normal 0 -1 0
    outer loop
      vertex 10 10.35 -649.3
      vertex 13 10.35 -655.3
      vertex 13 10.35 -635.3
    endloop
  endfacet
  facet normal 0 -1 0
    outer loop
      vertex 13 10.35 -655.3
      vertex 10 10.35 -649.3
      vertex 6.22 10.35 -655.3
    endloop
  endfacet
  facet normal 1 0 0
    outer loop
      vertex 13 13.7339 -638.684
      vertex 13 21.9661 -638.684
      vertex 13 13.8893 -638.494
    endloop
  endfacet
  facet normal 1 0 0
    outer loop
      vertex 13 22.1555 -651.761
      vertex 13 14.076 -652.556
      vertex 13 14.1 -652.8
    endloop
  endfacet
  facet normal 1 0 0
    outer loop
      vertex 13 21.9661 -638.684
      vertex 13 13.7339 -638.684
      vertex 13 22.1555 -638.839
    endloop
  endfacet
  facet normal 1 0 0
    outer loop
      vertex 13 22.1555 -651.761
      vertex 13 14.0049 -652.322
      vertex 13 14.076 -652.556
    endloop
  endfacet
  facet normal 1 0 0
    outer loop
      vertex 13 13.5445 -638.839
      vertex 13 22.1555 -638.839
      vertex 13 13.7339 -638.684
    endloop
  endfacet
  facet normal 1 0 0
    outer loop
      vertex 13 22.1555 -651.761
      vertex 13 13.8893 -652.106
      vertex 13 14.0049 -652.322
    endloop
  endfacet
  facet normal 1 0 0
    outer loop
      vertex 13 22.1555 -638.839
      vertex 13 13.5445 -638.839
      vertex 13 22.1555 -651.761
    endloop
  endfacet
  facet normal 1 0 0
    outer loop
      vertex 13 22.1555 -651.761
      vertex 13 13.7339 -651.916
      vertex 13 13.8893 -652.106
    endloop
  endfacet
  facet normal 1 0 0
    outer loop
      vertex 13 13.5445 -651.761
      vertex 13 22.1555 -651.761
      vertex 13 13.5445 -638.839
    endloop
  endfacet
  facet normal 1 0 0
    outer loop
      vertex 13 22.1555 -651.761
      vertex 13 13.5445 -651.761
      vertex 13 13.7339 -651.916
    endloop
  endfacet
  facet normal 1 -0 0
    outer loop
      vertex 13 13.3284 -638.955
      vertex 13 13.5445 -651.761
      vertex 13 13.5445 -638.839
    endloop
  endfacet
  facet normal 1 0 0
    outer loop
      vertex 13 13.3284 -638.955
      vertex 13 13.3284 -651.645
      vertex 13 13.5445 -651.761
    endloop
  endfacet
  facet normal 1 -0 0
    outer loop
      vertex 13 13.0939 -639.026
      vertex 13 13.3284 -651.645
      vertex 13 13.3284 -638.955
    endloop
  endfacet
  facet normal 1 0 0
    outer loop
      vertex 13 13.0939 -639.026
      vertex 13 13.0939 -651.574
      vertex 13 13.3284 -651.645
    endloop
  endfacet
  facet normal 1 -0 0
    outer loop
      vertex 13 12.85 -639.05
      vertex 13 13.0939 -651.574
      vertex 13 13.0939 -639.026
    endloop
  endfacet
  facet normal 1 0 0
    outer loop
      vertex 13 12.85 -639.05
      vertex 13 12.85 -651.55
      vertex 13 13.0939 -651.574
    endloop
  endfacet
  facet normal 1 0 0
    outer loop
      vertex 13 12.6061 -639.026
      vertex 13 12.85 -651.55
      vertex 13 12.85 -639.05
    endloop
  endfacet
  facet normal 1 0 0
    outer loop
      vertex 13 12.6061 -639.026
      vertex 13 12.6061 -651.574
      vertex 13 12.85 -651.55
    endloop
  endfacet
  facet normal 1 0 0
    outer loop
      vertex 13 12.3716 -638.955
      vertex 13 12.6061 -651.574
      vertex 13 12.6061 -639.026
    endloop
  endfacet
  facet normal 1 0 0
    outer loop
      vertex 13 12.3716 -638.955
      vertex 13 12.3716 -651.645
      vertex 13 12.6061 -651.574
    endloop
  endfacet
  facet normal 1 0 0
    outer loop
      vertex 13 12.1555 -638.839
      vertex 13 12.3716 -651.645
      vertex 13 12.3716 -638.955
    endloop
  endfacet
  facet normal 1 0 0
    outer loop
      vertex 13 12.1555 -638.839
      vertex 13 12.1555 -651.761
      vertex 13 12.3716 -651.645
    endloop
  endfacet
  facet normal 1 0 0
    outer loop
      vertex 13 11.9661 -638.684
      vertex 13 12.1555 -651.761
      vertex 13 12.1555 -638.839
    endloop
  endfacet
  facet normal 1 0 0
    outer loop
      vertex 13 11.9661 -638.684
      vertex 13 11.9661 -651.916
      vertex 13 12.1555 -651.761
    endloop
  endfacet
  facet normal 1 0 0
    outer loop
      vertex 13 11.8107 -638.494
      vertex 13 11.9661 -651.916
      vertex 13 11.9661 -638.684
    endloop
  endfacet
  facet normal 1 0 0
    outer loop
      vertex 13 11.8107 -638.494
      vertex 13 11.8107 -652.106
      vertex 13 11.9661 -651.916
    endloop
  endfacet
  facet normal 1 0 0
    outer loop
      vertex 13 11.6952 -638.278
      vertex 13 11.8107 -652.106
      vertex 13 11.8107 -638.494
    endloop
  endfacet
  facet normal 1 0 0
    outer loop
      vertex 13 11.6952 -638.278
      vertex 13 11.6952 -652.322
      vertex 13 11.8107 -652.106
    endloop
  endfacet
  facet normal 1 0 0
    outer loop
      vertex 13 10.35 -635.3
      vertex 13 11.6952 -638.278
      vertex 13 11.624 -638.044
    endloop
  endfacet
  facet normal 1 0 0
    outer loop
      vertex 13 11.6952 -638.278
      vertex 13 10.35 -635.3
      vertex 13 11.6952 -652.322
    endloop
  endfacet
  facet normal 1 0 0
    outer loop
      vertex 13 10.35 -635.3
      vertex 13 11.624 -638.044
      vertex 13 11.6 -637.8
    endloop
  endfacet
  facet normal 1 0 0
    outer loop
      vertex 13 10.35 -655.3
      vertex 13 11.6952 -652.322
      vertex 13 10.35 -635.3
    endloop
  endfacet
  facet normal 1 0 0
    outer loop
      vertex 13 25.35 -635.3
      vertex 13 24.0048 -638.278
      vertex 13 25.35 -655.3
    endloop
  endfacet
  facet normal 1 0 0
    outer loop
      vertex 13 25.35 -655.3
      vertex 13 24.076 -652.556
      vertex 13 24.1 -652.8
    endloop
  endfacet
  facet normal 1 -0 0
    outer loop
      vertex 13 24.0048 -652.322
      vertex 13 25.35 -655.3
      vertex 13 24.0048 -638.278
    endloop
  endfacet
  facet normal 1 0 0
    outer loop
      vertex 13 25.35 -655.3
      vertex 13 24.0048 -652.322
      vertex 13 24.076 -652.556
    endloop
  endfacet
  facet normal 1 -0 0
    outer loop
      vertex 13 23.8893 -638.494
      vertex 13 24.0048 -652.322
      vertex 13 24.0048 -638.278
    endloop
  endfacet
  facet normal 1 0 0
    outer loop
      vertex 13 23.8893 -638.494
      vertex 13 23.8893 -652.106
      vertex 13 24.0048 -652.322
    endloop
  endfacet
  facet normal 1 -0 0
    outer loop
      vertex 13 23.7339 -638.684
      vertex 13 23.8893 -652.106
      vertex 13 23.8893 -638.494
    endloop
  endfacet
  facet normal 1 0 0
    outer loop
      vertex 13 23.7339 -638.684
      vertex 13 23.7339 -651.916
      vertex 13 23.8893 -652.106
    endloop
  endfacet
  facet normal 1 -0 0
    outer loop
      vertex 13 23.5445 -638.839
      vertex 13 23.7339 -651.916
      vertex 13 23.7339 -638.684
    endloop
  endfacet
  facet normal 1 0 0
    outer loop
      vertex 13 23.5445 -638.839
      vertex 13 23.5445 -651.761
      vertex 13 23.7339 -651.916
    endloop
  endfacet
  facet normal 1 -0 0
    outer loop
      vertex 13 23.3284 -638.955
      vertex 13 23.5445 -651.761
      vertex 13 23.5445 -638.839
    endloop
  endfacet
  facet normal 1 0 0
    outer loop
      vertex 13 23.3284 -638.955
      vertex 13 23.3284 -651.645
      vertex 13 23.5445 -651.761
    endloop
  endfacet
  facet normal 1 -0 0
    outer loop
      vertex 13 23.0939 -639.026
      vertex 13 23.3284 -651.645
      vertex 13 23.3284 -638.955
    endloop
  endfacet
  facet normal 1 0 0
    outer loop
      vertex 13 23.0939 -639.026
      vertex 13 23.0939 -651.574
      vertex 13 23.3284 -651.645
    endloop
  endfacet
  facet normal 1 -0 0
    outer loop
      vertex 13 22.85 -639.05
      vertex 13 23.0939 -651.574
      vertex 13 23.0939 -639.026
    endloop
  endfacet
  facet normal 1 0 0
    outer loop
      vertex 13 22.85 -639.05
      vertex 13 22.85 -651.55
      vertex 13 23.0939 -651.574
    endloop
  endfacet
  facet normal 1 0 0
    outer loop
      vertex 13 22.6061 -639.026
      vertex 13 22.85 -651.55
      vertex 13 22.85 -639.05
    endloop
  endfacet
  facet normal 1 0 0
    outer loop
      vertex 13 22.6061 -639.026
      vertex 13 22.6061 -651.574
      vertex 13 22.85 -651.55
    endloop
  endfacet
  facet normal 1 0 0
    outer loop
      vertex 13 22.3716 -638.955
      vertex 13 22.6061 -651.574
      vertex 13 22.6061 -639.026
    endloop
  endfacet
  facet normal 1 0 0
    outer loop
      vertex 13 22.3716 -638.955
      vertex 13 22.3716 -651.645
      vertex 13 22.6061 -651.574
    endloop
  endfacet
  facet normal 1 0 0
    outer loop
      vertex 13 22.1555 -638.839
      vertex 13 22.3716 -651.645
      vertex 13 22.3716 -638.955
    endloop
  endfacet
  facet normal 1 0 0
    outer loop
      vertex 13 22.1555 -638.839
      vertex 13 22.1555 -651.761
      vertex 13 22.3716 -651.645
    endloop
  endfacet
  facet normal 1 0 0
    outer loop
      vertex 13 21.6952 -638.278
      vertex 13 14.0049 -638.278
      vertex 13 21.8107 -638.494
    endloop
  endfacet
  facet normal 1 0 0
    outer loop
      vertex 13 13.8893 -638.494
      vertex 13 21.8107 -638.494
      vertex 13 14.0049 -638.278
    endloop
  endfacet
  facet normal 1 0 0
    outer loop
      vertex 13 14.0049 -638.278
      vertex 13 21.6952 -638.278
      vertex 13 14.076 -638.044
    endloop
  endfacet
  facet normal 1 0 0
    outer loop
      vertex 13 21.8107 -638.494
      vertex 13 13.8893 -638.494
      vertex 13 21.9661 -638.684
    endloop
  endfacet
  facet normal 1 0 0
    outer loop
      vertex 13 21.624 -638.044
      vertex 13 14.076 -638.044
      vertex 13 21.6952 -638.278
    endloop
  endfacet
  facet normal 1 0 0
    outer loop
      vertex 13 22.1555 -651.761
      vertex 13 14.1 -652.8
      vertex 13 21.9661 -651.916
    endloop
  endfacet
  facet normal 1 0 0
    outer loop
      vertex 13 14.076 -638.044
      vertex 13 21.624 -638.044
      vertex 13 14.1 -637.8
    endloop
  endfacet
  facet normal 1 0 0
    outer loop
      vertex 13 21.9661 -651.916
      vertex 13 14.1 -652.8
      vertex 13 21.8107 -652.106
    endloop
  endfacet
  facet normal 1 -0 0
    outer loop
      vertex 13 14.1 -637.8
      vertex 13 21.624 -638.044
      vertex 13 21.6 -637.8
    endloop
  endfacet
  facet normal 1 0 0
    outer loop
      vertex 13 21.8107 -652.106
      vertex 13 14.1 -652.8
      vertex 13 21.6952 -652.322
    endloop
  endfacet
  facet normal 1 0 0
    outer loop
      vertex 13 24.076 -638.044
      vertex 13 25.35 -635.3
      vertex 13 24.1 -637.8
    endloop
  endfacet
  facet normal 1 0 0
    outer loop
      vertex 13 25.35 -635.3
      vertex 13 24.076 -637.556
      vertex 13 24.1 -637.8
    endloop
  endfacet
  facet normal 1 0 0
    outer loop
      vertex 13 25.35 -635.3
      vertex 13 24.0048 -637.322
      vertex 13 24.076 -637.556
    endloop
  endfacet
  facet normal 1 0 0
    outer loop
      vertex 13 25.35 -635.3
      vertex 13 23.8893 -637.106
      vertex 13 24.0048 -637.322
    endloop
  endfacet
  facet normal 1 0 0
    outer loop
      vertex 13 25.35 -635.3
      vertex 13 23.7339 -636.916
      vertex 13 23.8893 -637.106
    endloop
  endfacet
  facet normal 1 0 0
    outer loop
      vertex 13 25.35 -635.3
      vertex 13 23.5445 -636.761
      vertex 13 23.7339 -636.916
    endloop
  endfacet
  facet normal 1 0 0
    outer loop
      vertex 13 25.35 -635.3
      vertex 13 23.3284 -636.645
      vertex 13 23.5445 -636.761
    endloop
  endfacet
  facet normal 1 0 0
    outer loop
      vertex 13 25.35 -635.3
      vertex 13 23.0939 -636.574
      vertex 13 23.3284 -636.645
    endloop
  endfacet
  facet normal 1 0 0
    outer loop
      vertex 13 25.35 -635.3
      vertex 13 22.85 -636.55
      vertex 13 23.0939 -636.574
    endloop
  endfacet
  facet normal 1 0 0
    outer loop
      vertex 13 25.35 -635.3
      vertex 13 22.6061 -636.574
      vertex 13 22.85 -636.55
    endloop
  endfacet
  facet normal 1 0 0
    outer loop
      vertex 13 25.35 -635.3
      vertex 13 22.3716 -636.645
      vertex 13 22.6061 -636.574
    endloop
  endfacet
  facet normal 1 0 0
    outer loop
      vertex 13 21.6952 -652.322
      vertex 13 14.1 -652.8
      vertex 13 21.624 -652.556
    endloop
  endfacet
  facet normal 1 0 0
    outer loop
      vertex 13 21.624 -637.556
      vertex 13 14.1 -637.8
      vertex 13 21.6 -637.8
    endloop
  endfacet
  facet normal 1 0 0
    outer loop
      vertex 13 14.076 -637.556
      vertex 13 21.624 -637.556
      vertex 13 21.6952 -637.322
    endloop
  endfacet
  facet normal 1 0 0
    outer loop
      vertex 13 14.0049 -637.322
      vertex 13 21.6952 -637.322
      vertex 13 21.8107 -637.106
    endloop
  endfacet
  facet normal 1 0 0
    outer loop
      vertex 13 13.8893 -637.106
      vertex 13 21.8107 -637.106
      vertex 13 21.9661 -636.916
    endloop
  endfacet
  facet normal 1 0 0
    outer loop
      vertex 13 13.7339 -636.916
      vertex 13 21.9661 -636.916
      vertex 13 22.1555 -636.761
    endloop
  endfacet
  facet normal 1 0 0
    outer loop
      vertex 13 13.5445 -636.761
      vertex 13 22.1555 -636.761
      vertex 13 22.3716 -636.645
    endloop
  endfacet
  facet normal 1 0 0
    outer loop
      vertex 13 13.3284 -636.645
      vertex 13 22.3716 -636.645
      vertex 13 25.35 -635.3
    endloop
  endfacet
  facet normal 1 0 0
    outer loop
      vertex 13 21.624 -637.556
      vertex 13 14.076 -637.556
      vertex 13 14.1 -637.8
    endloop
  endfacet
  facet normal 1 0 0
    outer loop
      vertex 13 21.6952 -637.322
      vertex 13 14.0049 -637.322
      vertex 13 14.076 -637.556
    endloop
  endfacet
  facet normal 1 0 0
    outer loop
      vertex 13 21.8107 -637.106
      vertex 13 13.8893 -637.106
      vertex 13 14.0049 -637.322
    endloop
  endfacet
  facet normal 1 0 0
    outer loop
      vertex 13 21.9661 -636.916
      vertex 13 13.7339 -636.916
      vertex 13 13.8893 -637.106
    endloop
  endfacet
  facet normal 1 0 0
    outer loop
      vertex 13 22.1555 -636.761
      vertex 13 13.5445 -636.761
      vertex 13 13.7339 -636.916
    endloop
  endfacet
  facet normal 1 0 0
    outer loop
      vertex 13 22.3716 -636.645
      vertex 13 13.3284 -636.645
      vertex 13 13.5445 -636.761
    endloop
  endfacet
  facet normal 1 -0 0
    outer loop
      vertex 13 10.35 -635.3
      vertex 13 13.3284 -636.645
      vertex 13 25.35 -635.3
    endloop
  endfacet
  facet normal 1 0 0
    outer loop
      vertex 13 13.3284 -636.645
      vertex 13 10.35 -635.3
      vertex 13 13.0939 -636.574
    endloop
  endfacet
  facet normal 1 0 0
    outer loop
      vertex 13 13.0939 -636.574
      vertex 13 10.35 -635.3
      vertex 13 12.85 -636.55
    endloop
  endfacet
  facet normal 1 0 0
    outer loop
      vertex 13 11.6952 -652.322
      vertex 13 10.35 -655.3
      vertex 13 11.624 -652.556
    endloop
  endfacet
  facet normal 1 0 0
    outer loop
      vertex 13 11.624 -637.556
      vertex 13 10.35 -635.3
      vertex 13 11.6 -637.8
    endloop
  endfacet
  facet normal 1 0 0
    outer loop
      vertex 13 11.6952 -637.322
      vertex 13 10.35 -635.3
      vertex 13 11.624 -637.556
    endloop
  endfacet
  facet normal 1 0 0
    outer loop
      vertex 13 11.8107 -637.106
      vertex 13 10.35 -635.3
      vertex 13 11.6952 -637.322
    endloop
  endfacet
  facet normal 1 0 0
    outer loop
      vertex 13 11.9661 -636.916
      vertex 13 10.35 -635.3
      vertex 13 11.8107 -637.106
    endloop
  endfacet
  facet normal 1 0 0
    outer loop
      vertex 13 12.1555 -636.761
      vertex 13 10.35 -635.3
      vertex 13 11.9661 -636.916
    endloop
  endfacet
  facet normal 1 0 0
    outer loop
      vertex 13 12.3716 -636.645
      vertex 13 10.35 -635.3
      vertex 13 12.1555 -636.761
    endloop
  endfacet
  facet normal 1 0 0
    outer loop
      vertex 13 12.6061 -636.574
      vertex 13 10.35 -635.3
      vertex 13 12.3716 -636.645
    endloop
  endfacet
  facet normal 1 0 0
    outer loop
      vertex 13 12.85 -636.55
      vertex 13 10.35 -635.3
      vertex 13 12.6061 -636.574
    endloop
  endfacet
  facet normal 1 0 0
    outer loop
      vertex 13 24.0048 -638.278
      vertex 13 25.35 -635.3
      vertex 13 24.076 -638.044
    endloop
  endfacet
  facet normal 1 -0 0
    outer loop
      vertex 13 24.076 -653.044
      vertex 13 25.35 -655.3
      vertex 13 24.1 -652.8
    endloop
  endfacet
  facet normal 1 -0 0
    outer loop
      vertex 13 24.0048 -653.278
      vertex 13 25.35 -655.3
      vertex 13 24.076 -653.044
    endloop
  endfacet
  facet normal 1 -0 0
    outer loop
      vertex 13 23.8893 -653.494
      vertex 13 25.35 -655.3
      vertex 13 24.0048 -653.278
    endloop
  endfacet
  facet normal 1 -0 0
    outer loop
      vertex 13 23.7339 -653.684
      vertex 13 25.35 -655.3
      vertex 13 23.8893 -653.494
    endloop
  endfacet
  facet normal 1 -0 0
    outer loop
      vertex 13 23.5445 -653.839
      vertex 13 25.35 -655.3
      vertex 13 23.7339 -653.684
    endloop
  endfacet
  facet normal 1 -0 0
    outer loop
      vertex 13 23.3284 -653.955
      vertex 13 25.35 -655.3
      vertex 13 23.5445 -653.839
    endloop
  endfacet
  facet normal 1 -0 0
    outer loop
      vertex 13 23.0939 -654.026
      vertex 13 25.35 -655.3
      vertex 13 23.3284 -653.955
    endloop
  endfacet
  facet normal 1 -0 0
    outer loop
      vertex 13 22.85 -654.05
      vertex 13 25.35 -655.3
      vertex 13 23.0939 -654.026
    endloop
  endfacet
  facet normal 1 0 0
    outer loop
      vertex 13 22.6061 -654.026
      vertex 13 25.35 -655.3
      vertex 13 22.85 -654.05
    endloop
  endfacet
  facet normal 1 0 0
    outer loop
      vertex 13 22.3716 -653.955
      vertex 13 25.35 -655.3
      vertex 13 22.6061 -654.026
    endloop
  endfacet
  facet normal 1 0 0
    outer loop
      vertex 13 21.624 -652.556
      vertex 13 14.1 -652.8
      vertex 13 21.6 -652.8
    endloop
  endfacet
  facet normal 1 0 0
    outer loop
      vertex 13 21.6 -652.8
      vertex 13 14.1 -652.8
      vertex 13 21.624 -653.044
    endloop
  endfacet
  facet normal 1 0 0
    outer loop
      vertex 13 14.076 -653.044
      vertex 13 21.624 -653.044
      vertex 13 14.1 -652.8
    endloop
  endfacet
  facet normal 1 0 0
    outer loop
      vertex 13 21.624 -653.044
      vertex 13 14.076 -653.044
      vertex 13 21.6952 -653.278
    endloop
  endfacet
  facet normal 1 0 0
    outer loop
      vertex 13 14.0049 -653.278
      vertex 13 21.6952 -653.278
      vertex 13 14.076 -653.044
    endloop
  endfacet
  facet normal 1 0 0
    outer loop
      vertex 13 21.6952 -653.278
      vertex 13 14.0049 -653.278
      vertex 13 21.8107 -653.494
    endloop
  endfacet
  facet normal 1 0 0
    outer loop
      vertex 13 13.8893 -653.494
      vertex 13 21.8107 -653.494
      vertex 13 14.0049 -653.278
    endloop
  endfacet
  facet normal 1 0 0
    outer loop
      vertex 13 21.8107 -653.494
      vertex 13 13.8893 -653.494
      vertex 13 21.9661 -653.684
    endloop
  endfacet
  facet normal 1 0 0
    outer loop
      vertex 13 13.7339 -653.684
      vertex 13 21.9661 -653.684
      vertex 13 13.8893 -653.494
    endloop
  endfacet
  facet normal 1 0 0
    outer loop
      vertex 13 21.9661 -653.684
      vertex 13 13.7339 -653.684
      vertex 13 22.1555 -653.839
    endloop
  endfacet
  facet normal 1 0 0
    outer loop
      vertex 13 13.5445 -653.839
      vertex 13 22.1555 -653.839
      vertex 13 13.7339 -653.684
    endloop
  endfacet
  facet normal 1 0 0
    outer loop
      vertex 13 22.1555 -653.839
      vertex 13 13.5445 -653.839
      vertex 13 22.3716 -653.955
    endloop
  endfacet
  facet normal 1 0 0
    outer loop
      vertex 13 13.3284 -653.955
      vertex 13 22.3716 -653.955
      vertex 13 13.5445 -653.839
    endloop
  endfacet
  facet normal 1 0 0
    outer loop
      vertex 13 22.3716 -653.955
      vertex 13 13.3284 -653.955
      vertex 13 25.35 -655.3
    endloop
  endfacet
  facet normal 1 0 0
    outer loop
      vertex 13 10.35 -655.3
      vertex 13 13.3284 -653.955
      vertex 13 13.0939 -654.026
    endloop
  endfacet
  facet normal 1 0 0
    outer loop
      vertex 13 10.35 -655.3
      vertex 13 13.0939 -654.026
      vertex 13 12.85 -654.05
    endloop
  endfacet
  facet normal 1 0 0
    outer loop
      vertex 13 10.35 -655.3
      vertex 13 12.85 -654.05
      vertex 13 12.6061 -654.026
    endloop
  endfacet
  facet normal 1 0 0
    outer loop
      vertex 13 13.3284 -653.955
      vertex 13 10.35 -655.3
      vertex 13 25.35 -655.3
    endloop
  endfacet
  facet normal 1 0 0
    outer loop
      vertex 13 12.3716 -653.955
      vertex 13 10.35 -655.3
      vertex 13 12.6061 -654.026
    endloop
  endfacet
  facet normal 1 0 0
    outer loop
      vertex 13 12.1555 -653.839
      vertex 13 10.35 -655.3
      vertex 13 12.3716 -653.955
    endloop
  endfacet
  facet normal 1 0 0
    outer loop
      vertex 13 11.9661 -653.684
      vertex 13 10.35 -655.3
      vertex 13 12.1555 -653.839
    endloop
  endfacet
  facet normal 1 0 0
    outer loop
      vertex 13 11.8107 -653.494
      vertex 13 10.35 -655.3
      vertex 13 11.9661 -653.684
    endloop
  endfacet
  facet normal 1 0 0
    outer loop
      vertex 13 11.6952 -653.278
      vertex 13 10.35 -655.3
      vertex 13 11.8107 -653.494
    endloop
  endfacet
  facet normal 1 0 0
    outer loop
      vertex 13 11.624 -653.044
      vertex 13 10.35 -655.3
      vertex 13 11.6952 -653.278
    endloop
  endfacet
  facet normal 1 0 0
    outer loop
      vertex 13 11.6 -652.8
      vertex 13 10.35 -655.3
      vertex 13 11.624 -653.044
    endloop
  endfacet
  facet normal 1 0 0
    outer loop
      vertex 13 11.624 -652.556
      vertex 13 10.35 -655.3
      vertex 13 11.6 -652.8
    endloop
  endfacet
  facet normal 0 0 -1
    outer loop
      vertex 6.22 10.35 -655.3
      vertex 13 25.35 -655.3
      vertex 13 10.35 -655.3
    endloop
  endfacet
  facet normal -0 0 -1
    outer loop
      vertex 13 25.35 -655.3
      vertex 6.22 10.35 -655.3
      vertex 6.22 25.35 -655.3
    endloop
  endfacet
  facet normal -0 0 1
    outer loop
      vertex 10 25.35 -635.3
      vertex 13 10.35 -635.3
      vertex 13 25.35 -635.3
    endloop
  endfacet
  facet normal 0 0 1
    outer loop
      vertex 13 10.35 -635.3
      vertex 10 25.35 -635.3
      vertex 10 10.35 -635.3
    endloop
  endfacet
  facet normal -1 0 0
    outer loop
      vertex 6.22 25.35 -655.3
      vertex 6.22 24.1 -652.8
      vertex 6.22 25.35 -649.3
    endloop
  endfacet
  facet normal -1 0 0
    outer loop
      vertex 6.22 25.35 -655.3
      vertex 6.22 24.076 -653.044
      vertex 6.22 24.1 -652.8
    endloop
  endfacet
  facet normal -1 0 0
    outer loop
      vertex 6.22 25.35 -655.3
      vertex 6.22 24.0048 -653.278
      vertex 6.22 24.076 -653.044
    endloop
  endfacet
  facet normal -1 0 0
    outer loop
      vertex 6.22 25.35 -655.3
      vertex 6.22 23.8893 -653.494
      vertex 6.22 24.0048 -653.278
    endloop
  endfacet
  facet normal -1 0 0
    outer loop
      vertex 6.22 25.35 -655.3
      vertex 6.22 23.7339 -653.684
      vertex 6.22 23.8893 -653.494
    endloop
  endfacet
  facet normal -1 0 0
    outer loop
      vertex 6.22 25.35 -655.3
      vertex 6.22 23.5445 -653.839
      vertex 6.22 23.7339 -653.684
    endloop
  endfacet
  facet normal -1 0 0
    outer loop
      vertex 6.22 25.35 -655.3
      vertex 6.22 23.3284 -653.955
      vertex 6.22 23.5445 -653.839
    endloop
  endfacet
  facet normal -1 0 0
    outer loop
      vertex 6.22 25.35 -655.3
      vertex 6.22 23.0939 -654.026
      vertex 6.22 23.3284 -653.955
    endloop
  endfacet
  facet normal -1 0 0
    outer loop
      vertex 6.22 25.35 -655.3
      vertex 6.22 22.85 -654.05
      vertex 6.22 23.0939 -654.026
    endloop
  endfacet
  facet normal -1 0 0
    outer loop
      vertex 6.22 25.35 -655.3
      vertex 6.22 22.6061 -654.026
      vertex 6.22 22.85 -654.05
    endloop
  endfacet
  facet normal -1 0 0
    outer loop
      vertex 6.22 25.35 -655.3
      vertex 6.22 22.3716 -653.955
      vertex 6.22 22.6061 -654.026
    endloop
  endfacet
  facet normal -1 0 0
    outer loop
      vertex 6.22 21.624 -653.044
      vertex 6.22 14.1 -652.8
      vertex 6.22 21.6 -652.8
    endloop
  endfacet
  facet normal -1 0 0
    outer loop
      vertex 6.22 14.076 -653.044
      vertex 6.22 21.624 -653.044
      vertex 6.22 21.6952 -653.278
    endloop
  endfacet
  facet normal -1 0 0
    outer loop
      vertex 6.22 14.0049 -653.278
      vertex 6.22 21.6952 -653.278
      vertex 6.22 21.8107 -653.494
    endloop
  endfacet
  facet normal -1 0 0
    outer loop
      vertex 6.22 13.8893 -653.494
      vertex 6.22 21.8107 -653.494
      vertex 6.22 21.9661 -653.684
    endloop
  endfacet
  facet normal -1 0 0
    outer loop
      vertex 6.22 13.7339 -653.684
      vertex 6.22 21.9661 -653.684
      vertex 6.22 22.1555 -653.839
    endloop
  endfacet
  facet normal -1 0 0
    outer loop
      vertex 6.22 13.5445 -653.839
      vertex 6.22 22.1555 -653.839
      vertex 6.22 22.3716 -653.955
    endloop
  endfacet
  facet normal -1 0 0
    outer loop
      vertex 6.22 13.3284 -653.955
      vertex 6.22 22.3716 -653.955
      vertex 6.22 25.35 -655.3
    endloop
  endfacet
  facet normal -1 0 0
    outer loop
      vertex 6.22 21.624 -653.044
      vertex 6.22 14.076 -653.044
      vertex 6.22 14.1 -652.8
    endloop
  endfacet
  facet normal -1 0 0
    outer loop
      vertex 6.22 21.6952 -653.278
      vertex 6.22 14.0049 -653.278
      vertex 6.22 14.076 -653.044
    endloop
  endfacet
  facet normal -1 0 0
    outer loop
      vertex 6.22 21.8107 -653.494
      vertex 6.22 13.8893 -653.494
      vertex 6.22 14.0049 -653.278
    endloop
  endfacet
  facet normal -1 0 0
    outer loop
      vertex 6.22 21.9661 -653.684
      vertex 6.22 13.7339 -653.684
      vertex 6.22 13.8893 -653.494
    endloop
  endfacet
  facet normal -1 0 0
    outer loop
      vertex 6.22 22.1555 -653.839
      vertex 6.22 13.5445 -653.839
      vertex 6.22 13.7339 -653.684
    endloop
  endfacet
  facet normal -1 0 0
    outer loop
      vertex 6.22 22.3716 -653.955
      vertex 6.22 13.3284 -653.955
      vertex 6.22 13.5445 -653.839
    endloop
  endfacet
  facet normal -1 0 0
    outer loop
      vertex 6.22 10.35 -655.3
      vertex 6.22 13.3284 -653.955
      vertex 6.22 25.35 -655.3
    endloop
  endfacet
  facet normal -1 0 0
    outer loop
      vertex 6.22 13.3284 -653.955
      vertex 6.22 10.35 -655.3
      vertex 6.22 13.0939 -654.026
    endloop
  endfacet
  facet normal -1 0 0
    outer loop
      vertex 6.22 13.0939 -654.026
      vertex 6.22 10.35 -655.3
      vertex 6.22 12.85 -654.05
    endloop
  endfacet
  facet normal -1 -0 0
    outer loop
      vertex 6.22 11.624 -653.044
      vertex 6.22 10.35 -655.3
      vertex 6.22 11.6 -652.8
    endloop
  endfacet
  facet normal -1 -0 0
    outer loop
      vertex 6.22 11.6952 -653.278
      vertex 6.22 10.35 -655.3
      vertex 6.22 11.624 -653.044
    endloop
  endfacet
  facet normal -1 -0 0
    outer loop
      vertex 6.22 11.8107 -653.494
      vertex 6.22 10.35 -655.3
      vertex 6.22 11.6952 -653.278
    endloop
  endfacet
  facet normal -1 -0 0
    outer loop
      vertex 6.22 11.9661 -653.684
      vertex 6.22 10.35 -655.3
      vertex 6.22 11.8107 -653.494
    endloop
  endfacet
  facet normal -1 -0 0
    outer loop
      vertex 6.22 12.1555 -653.839
      vertex 6.22 10.35 -655.3
      vertex 6.22 11.9661 -653.684
    endloop
  endfacet
  facet normal -1 -0 0
    outer loop
      vertex 6.22 12.3716 -653.955
      vertex 6.22 10.35 -655.3
      vertex 6.22 12.1555 -653.839
    endloop
  endfacet
  facet normal -1 -0 0
    outer loop
      vertex 6.22 12.6061 -654.026
      vertex 6.22 10.35 -655.3
      vertex 6.22 12.3716 -653.955
    endloop
  endfacet
  facet normal -1 -0 0
    outer loop
      vertex 6.22 12.85 -654.05
      vertex 6.22 10.35 -655.3
      vertex 6.22 12.6061 -654.026
    endloop
  endfacet
  facet normal -1 0 0
    outer loop
      vertex 6.22 24.076 -652.556
      vertex 6.22 25.35 -649.3
      vertex 6.22 24.1 -652.8
    endloop
  endfacet
  facet normal -1 0 0
    outer loop
      vertex 6.22 24.0048 -652.322
      vertex 6.22 25.35 -649.3
      vertex 6.22 24.076 -652.556
    endloop
  endfacet
  facet normal -1 0 0
    outer loop
      vertex 6.22 23.8893 -652.106
      vertex 6.22 25.35 -649.3
      vertex 6.22 24.0048 -652.322
    endloop
  endfacet
  facet normal -1 0 0
    outer loop
      vertex 6.22 23.7339 -651.916
      vertex 6.22 25.35 -649.3
      vertex 6.22 23.8893 -652.106
    endloop
  endfacet
  facet normal -1 0 0
    outer loop
      vertex 6.22 23.5445 -651.761
      vertex 6.22 25.35 -649.3
      vertex 6.22 23.7339 -651.916
    endloop
  endfacet
  facet normal -1 0 0
    outer loop
      vertex 6.22 23.3284 -651.645
      vertex 6.22 25.35 -649.3
      vertex 6.22 23.5445 -651.761
    endloop
  endfacet
  facet normal -1 0 0
    outer loop
      vertex 6.22 23.0939 -651.574
      vertex 6.22 25.35 -649.3
      vertex 6.22 23.3284 -651.645
    endloop
  endfacet
  facet normal -1 0 0
    outer loop
      vertex 6.22 22.85 -651.55
      vertex 6.22 25.35 -649.3
      vertex 6.22 23.0939 -651.574
    endloop
  endfacet
  facet normal -1 0 0
    outer loop
      vertex 6.22 22.6061 -651.574
      vertex 6.22 25.35 -649.3
      vertex 6.22 22.85 -651.55
    endloop
  endfacet
  facet normal -1 0 0
    outer loop
      vertex 6.22 22.3716 -651.645
      vertex 6.22 25.35 -649.3
      vertex 6.22 22.6061 -651.574
    endloop
  endfacet
  facet normal -1 0 0
    outer loop
      vertex 6.22 13.3284 -651.645
      vertex 6.22 22.3716 -651.645
      vertex 6.22 22.1555 -651.761
    endloop
  endfacet
  facet normal -1 0 0
    outer loop
      vertex 6.22 14.1 -652.8
      vertex 6.22 21.624 -652.556
      vertex 6.22 21.6 -652.8
    endloop
  endfacet
  facet normal -1 0 0
    outer loop
      vertex 6.22 14.076 -652.556
      vertex 6.22 21.624 -652.556
      vertex 6.22 14.1 -652.8
    endloop
  endfacet
  facet normal -1 0 0
    outer loop
      vertex 6.22 21.624 -652.556
      vertex 6.22 14.076 -652.556
      vertex 6.22 21.6952 -652.322
    endloop
  endfacet
  facet normal -1 0 0
    outer loop
      vertex 6.22 14.0049 -652.322
      vertex 6.22 21.6952 -652.322
      vertex 6.22 14.076 -652.556
    endloop
  endfacet
  facet normal -1 0 0
    outer loop
      vertex 6.22 21.6952 -652.322
      vertex 6.22 14.0049 -652.322
      vertex 6.22 21.8107 -652.106
    endloop
  endfacet
  facet normal -1 0 0
    outer loop
      vertex 6.22 13.8893 -652.106
      vertex 6.22 21.8107 -652.106
      vertex 6.22 14.0049 -652.322
    endloop
  endfacet
  facet normal -1 0 0
    outer loop
      vertex 6.22 21.8107 -652.106
      vertex 6.22 13.8893 -652.106
      vertex 6.22 21.9661 -651.916
    endloop
  endfacet
  facet normal -1 0 0
    outer loop
      vertex 6.22 13.7339 -651.916
      vertex 6.22 21.9661 -651.916
      vertex 6.22 13.8893 -652.106
    endloop
  endfacet
  facet normal -1 0 0
    outer loop
      vertex 6.22 21.9661 -651.916
      vertex 6.22 13.7339 -651.916
      vertex 6.22 22.1555 -651.761
    endloop
  endfacet
  facet normal -1 0 0
    outer loop
      vertex 6.22 13.5445 -651.761
      vertex 6.22 22.1555 -651.761
      vertex 6.22 13.7339 -651.916
    endloop
  endfacet
  facet normal -1 0 0
    outer loop
      vertex 6.22 13.3284 -651.645
      vertex 6.22 22.1555 -651.761
      vertex 6.22 13.5445 -651.761
    endloop
  endfacet
  facet normal -1 0 0
    outer loop
      vertex 6.22 22.3716 -651.645
      vertex 6.22 13.3284 -651.645
      vertex 6.22 25.35 -649.3
    endloop
  endfacet
  facet normal -1 0 0
    outer loop
      vertex 6.22 10.35 -649.3
      vertex 6.22 13.3284 -651.645
      vertex 6.22 13.0939 -651.574
    endloop
  endfacet
  facet normal -1 0 0
    outer loop
      vertex 6.22 10.35 -649.3
      vertex 6.22 13.0939 -651.574
      vertex 6.22 12.85 -651.55
    endloop
  endfacet
  facet normal -1 0 0
    outer loop
      vertex 6.22 10.35 -649.3
      vertex 6.22 12.85 -651.55
      vertex 6.22 12.6061 -651.574
    endloop
  endfacet
  facet normal -1 0 0
    outer loop
      vertex 6.22 10.35 -655.3
      vertex 6.22 11.624 -652.556
      vertex 6.22 11.6 -652.8
    endloop
  endfacet
  facet normal -1 0 0
    outer loop
      vertex 6.22 10.35 -649.3
      vertex 6.22 11.624 -652.556
      vertex 6.22 10.35 -655.3
    endloop
  endfacet
  facet normal -1 0 0
    outer loop
      vertex 6.22 13.3284 -651.645
      vertex 6.22 10.35 -649.3
      vertex 6.22 25.35 -649.3
    endloop
  endfacet
  facet normal -1 0 0
    outer loop
      vertex 6.22 12.3716 -651.645
      vertex 6.22 10.35 -649.3
      vertex 6.22 12.6061 -651.574
    endloop
  endfacet
  facet normal -1 0 0
    outer loop
      vertex 6.22 12.1555 -651.761
      vertex 6.22 10.35 -649.3
      vertex 6.22 12.3716 -651.645
    endloop
  endfacet
  facet normal -1 0 0
    outer loop
      vertex 6.22 11.9661 -651.916
      vertex 6.22 10.35 -649.3
      vertex 6.22 12.1555 -651.761
    endloop
  endfacet
  facet normal -1 0 0
    outer loop
      vertex 6.22 11.8107 -652.106
      vertex 6.22 10.35 -649.3
      vertex 6.22 11.9661 -651.916
    endloop
  endfacet
  facet normal -1 0 0
    outer loop
      vertex 6.22 11.6952 -652.322
      vertex 6.22 10.35 -649.3
      vertex 6.22 11.8107 -652.106
    endloop
  endfacet
  facet normal -1 0 0
    outer loop
      vertex 6.22 11.624 -652.556
      vertex 6.22 10.35 -649.3
      vertex 6.22 11.6952 -652.322
    endloop
  endfacet
  facet normal -0 0 1
    outer loop
      vertex 6.22 25.35 -649.3
      vertex 10 10.35 -649.3
      vertex 10 25.35 -649.3
    endloop
  endfacet
  facet normal 0 0 1
    outer loop
      vertex 10 10.35 -649.3
      vertex 6.22 25.35 -649.3
      vertex 6.22 10.35 -649.3
    endloop
  endfacet
  facet normal 0 0.471482 -0.881876
    outer loop
      vertex 10 12.1555 -636.761
      vertex 13 12.3716 -636.645
      vertex 13 12.1555 -636.761
    endloop
  endfacet
  facet normal 0 0.471482 -0.881876
    outer loop
      vertex 13 12.3716 -636.645
      vertex 10 12.1555 -636.761
      vertex 10 12.3716 -636.645
    endloop
  endfacet
  facet normal 0 0.995186 0.0980072
    outer loop
      vertex 13 11.624 -638.044
      vertex 10 11.6 -637.8
      vertex 13 11.6 -637.8
    endloop
  endfacet
  facet normal 0 0.995186 0.0980072
    outer loop
      vertex 10 11.6 -637.8
      vertex 13 11.624 -638.044
      vertex 10 11.624 -638.044
    endloop
  endfacet
  facet normal 0 -0.0978894 0.995197
    outer loop
      vertex 10 13.0939 -639.026
      vertex 13 12.85 -639.05
      vertex 13 13.0939 -639.026
    endloop
  endfacet
  facet normal 0 -0.0978894 0.995197
    outer loop
      vertex 13 12.85 -639.05
      vertex 10 13.0939 -639.026
      vertex 10 12.85 -639.05
    endloop
  endfacet
  facet normal 0 -0.471482 -0.881876
    outer loop
      vertex 10 13.3284 -636.645
      vertex 13 13.5445 -636.761
      vertex 13 13.3284 -636.645
    endloop
  endfacet
  facet normal -0 -0.471482 -0.881876
    outer loop
      vertex 13 13.5445 -636.761
      vertex 10 13.3284 -636.645
      vertex 10 13.5445 -636.761
    endloop
  endfacet
  facet normal 0 -0.956943 -0.290276
    outer loop
      vertex 10 14.076 -637.556
      vertex 13 14.0049 -637.322
      vertex 10 14.0049 -637.322
    endloop
  endfacet
  facet normal 0 -0.956943 -0.290276
    outer loop
      vertex 13 14.0049 -637.322
      vertex 10 14.076 -637.556
      vertex 13 14.076 -637.556
    endloop
  endfacet
  facet normal 0 0.773065 0.634326
    outer loop
      vertex 13 11.9661 -638.684
      vertex 10 11.8107 -638.494
      vertex 13 11.8107 -638.494
    endloop
  endfacet
  facet normal 0 0.773065 0.634326
    outer loop
      vertex 10 11.8107 -638.494
      vertex 13 11.9661 -638.684
      vertex 10 11.9661 -638.684
    endloop
  endfacet
  facet normal 0 0.881936 -0.471369
    outer loop
      vertex 13 11.6952 -637.322
      vertex 10 11.8107 -637.106
      vertex 13 11.8107 -637.106
    endloop
  endfacet
  facet normal 0 0.881936 -0.471369
    outer loop
      vertex 10 11.8107 -637.106
      vertex 13 11.6952 -637.322
      vertex 10 11.6952 -637.322
    endloop
  endfacet
  facet normal 0 0.772965 -0.634449
    outer loop
      vertex 13 11.8107 -637.106
      vertex 10 11.9661 -636.916
      vertex 13 11.9661 -636.916
    endloop
  endfacet
  facet normal 0 0.772965 -0.634449
    outer loop
      vertex 10 11.9661 -636.916
      vertex 13 11.8107 -637.106
      vertex 10 11.8107 -637.106
    endloop
  endfacet
  facet normal 0 0.634401 -0.773004
    outer loop
      vertex 10 11.9661 -636.916
      vertex 13 12.1555 -636.761
      vertex 13 11.9661 -636.916
    endloop
  endfacet
  facet normal 0 0.634401 -0.773004
    outer loop
      vertex 13 12.1555 -636.761
      vertex 10 11.9661 -636.916
      vertex 10 12.1555 -636.761
    endloop
  endfacet
  facet normal 0 0.290187 -0.95697
    outer loop
      vertex 10 12.3716 -636.645
      vertex 13 12.6061 -636.574
      vertex 13 12.3716 -636.645
    endloop
  endfacet
  facet normal 0 0.290187 -0.95697
    outer loop
      vertex 13 12.6061 -636.574
      vertex 10 12.3716 -636.645
      vertex 10 12.6061 -636.574
    endloop
  endfacet
  facet normal 0 -0.0981361 -0.995173
    outer loop
      vertex 10 12.85 -636.55
      vertex 13 13.0939 -636.574
      vertex 13 12.85 -636.55
    endloop
  endfacet
  facet normal -0 -0.0981361 -0.995173
    outer loop
      vertex 13 13.0939 -636.574
      vertex 10 12.85 -636.55
      vertex 10 13.0939 -636.574
    endloop
  endfacet
  facet normal 0 -0.995186 0.0980033
    outer loop
      vertex 10 14.076 -638.044
      vertex 13 14.1 -637.8
      vertex 10 14.1 -637.8
    endloop
  endfacet
  facet normal 0 -0.995186 0.0980033
    outer loop
      vertex 13 14.1 -637.8
      vertex 10 14.076 -638.044
      vertex 13 14.076 -638.044
    endloop
  endfacet
  facet normal 0 -0.881936 -0.471369
    outer loop
      vertex 10 14.0049 -637.322
      vertex 13 13.8893 -637.106
      vertex 10 13.8893 -637.106
    endloop
  endfacet
  facet normal 0 -0.881936 -0.471369
    outer loop
      vertex 13 13.8893 -637.106
      vertex 10 14.0049 -637.322
      vertex 13 14.0049 -637.322
    endloop
  endfacet
  facet normal 0 -0.634401 -0.773004
    outer loop
      vertex 10 13.5445 -636.761
      vertex 13 13.7339 -636.916
      vertex 13 13.5445 -636.761
    endloop
  endfacet
  facet normal -0 -0.634401 -0.773004
    outer loop
      vertex 13 13.7339 -636.916
      vertex 10 13.5445 -636.761
      vertex 10 13.7339 -636.916
    endloop
  endfacet
  facet normal 0 -0.290187 -0.95697
    outer loop
      vertex 10 13.0939 -636.574
      vertex 13 13.3284 -636.645
      vertex 13 13.0939 -636.574
    endloop
  endfacet
  facet normal -0 -0.290187 -0.95697
    outer loop
      vertex 13 13.3284 -636.645
      vertex 10 13.0939 -636.574
      vertex 10 13.3284 -636.645
    endloop
  endfacet
  facet normal 0 -0.772965 -0.634449
    outer loop
      vertex 10 13.8893 -637.106
      vertex 13 13.7339 -636.916
      vertex 10 13.7339 -636.916
    endloop
  endfacet
  facet normal 0 -0.772965 -0.634449
    outer loop
      vertex 13 13.7339 -636.916
      vertex 10 13.8893 -637.106
      vertex 13 13.8893 -637.106
    endloop
  endfacet
  facet normal 0 0.995183 -0.0980315
    outer loop
      vertex 13 11.6 -637.8
      vertex 10 11.624 -637.556
      vertex 13 11.624 -637.556
    endloop
  endfacet
  facet normal 0 0.995183 -0.0980315
    outer loop
      vertex 10 11.624 -637.556
      vertex 13 11.6 -637.8
      vertex 10 11.6 -637.8
    endloop
  endfacet
  facet normal -0 0.290415 0.956901
    outer loop
      vertex 10 12.6061 -639.026
      vertex 13 12.3716 -638.955
      vertex 13 12.6061 -639.026
    endloop
  endfacet
  facet normal 0 0.290415 0.956901
    outer loop
      vertex 13 12.3716 -638.955
      vertex 10 12.6061 -639.026
      vertex 10 12.3716 -638.955
    endloop
  endfacet
  facet normal 0 0.881881 0.471473
    outer loop
      vertex 13 11.8107 -638.494
      vertex 10 11.6952 -638.278
      vertex 13 11.6952 -638.278
    endloop
  endfacet
  facet normal 0 0.881881 0.471473
    outer loop
      vertex 10 11.6952 -638.278
      vertex 13 11.8107 -638.494
      vertex 10 11.8107 -638.494
    endloop
  endfacet
  facet normal 0 0.956943 0.290276
    outer loop
      vertex 13 11.6952 -638.278
      vertex 10 11.624 -638.044
      vertex 13 11.624 -638.044
    endloop
  endfacet
  facet normal 0 0.956943 0.290276
    outer loop
      vertex 10 11.624 -638.044
      vertex 13 11.6952 -638.278
      vertex 10 11.6952 -638.278
    endloop
  endfacet
  facet normal -0 0.471288 0.881979
    outer loop
      vertex 10 12.3716 -638.955
      vertex 13 12.1555 -638.839
      vertex 13 12.3716 -638.955
    endloop
  endfacet
  facet normal 0 0.471288 0.881979
    outer loop
      vertex 13 12.1555 -638.839
      vertex 10 12.3716 -638.955
      vertex 10 12.1555 -638.839
    endloop
  endfacet
  facet normal -0 0.634401 0.773004
    outer loop
      vertex 10 12.1555 -638.839
      vertex 13 11.9661 -638.684
      vertex 13 12.1555 -638.839
    endloop
  endfacet
  facet normal 0 0.634401 0.773004
    outer loop
      vertex 13 11.9661 -638.684
      vertex 10 12.1555 -638.839
      vertex 10 11.9661 -638.684
    endloop
  endfacet
  facet normal -0 0.0978898 0.995197
    outer loop
      vertex 10 12.85 -639.05
      vertex 13 12.6061 -639.026
      vertex 13 12.85 -639.05
    endloop
  endfacet
  facet normal 0 0.0978898 0.995197
    outer loop
      vertex 13 12.6061 -639.026
      vertex 10 12.85 -639.05
      vertex 10 12.6061 -639.026
    endloop
  endfacet
  facet normal 0 -0.471288 0.881979
    outer loop
      vertex 10 13.5445 -638.839
      vertex 13 13.3284 -638.955
      vertex 13 13.5445 -638.839
    endloop
  endfacet
  facet normal 0 -0.471288 0.881979
    outer loop
      vertex 13 13.3284 -638.955
      vertex 10 13.5445 -638.839
      vertex 10 13.3284 -638.955
    endloop
  endfacet
  facet normal 0 -0.773065 0.634326
    outer loop
      vertex 10 13.7339 -638.684
      vertex 13 13.8893 -638.494
      vertex 10 13.8893 -638.494
    endloop
  endfacet
  facet normal 0 -0.773065 0.634326
    outer loop
      vertex 13 13.8893 -638.494
      vertex 10 13.7339 -638.684
      vertex 13 13.7339 -638.684
    endloop
  endfacet
  facet normal 0 -0.956943 0.290276
    outer loop
      vertex 10 14.0049 -638.278
      vertex 13 14.076 -638.044
      vertex 10 14.076 -638.044
    endloop
  endfacet
  facet normal 0 -0.956943 0.290276
    outer loop
      vertex 13 14.076 -638.044
      vertex 10 14.0049 -638.278
      vertex 13 14.0049 -638.278
    endloop
  endfacet
  facet normal 0 -0.634401 0.773004
    outer loop
      vertex 10 13.7339 -638.684
      vertex 13 13.5445 -638.839
      vertex 13 13.7339 -638.684
    endloop
  endfacet
  facet normal 0 -0.634401 0.773004
    outer loop
      vertex 13 13.5445 -638.839
      vertex 10 13.7339 -638.684
      vertex 10 13.5445 -638.839
    endloop
  endfacet
  facet normal 0 0.956943 -0.290276
    outer loop
      vertex 13 11.624 -637.556
      vertex 10 11.6952 -637.322
      vertex 13 11.6952 -637.322
    endloop
  endfacet
  facet normal 0 0.956943 -0.290276
    outer loop
      vertex 10 11.6952 -637.322
      vertex 13 11.624 -637.556
      vertex 10 11.624 -637.556
    endloop
  endfacet
  facet normal 0 0.0981365 -0.995173
    outer loop
      vertex 10 12.6061 -636.574
      vertex 13 12.85 -636.55
      vertex 13 12.6061 -636.574
    endloop
  endfacet
  facet normal 0 0.0981365 -0.995173
    outer loop
      vertex 13 12.85 -636.55
      vertex 10 12.6061 -636.574
      vertex 10 12.85 -636.55
    endloop
  endfacet
  facet normal 0 -0.995184 -0.0980276
    outer loop
      vertex 10 14.1 -637.8
      vertex 13 14.076 -637.556
      vertex 10 14.076 -637.556
    endloop
  endfacet
  facet normal 0 -0.995184 -0.0980276
    outer loop
      vertex 13 14.076 -637.556
      vertex 10 14.1 -637.8
      vertex 13 14.1 -637.8
    endloop
  endfacet
  facet normal 0 -0.290415 0.956901
    outer loop
      vertex 10 13.3284 -638.955
      vertex 13 13.0939 -639.026
      vertex 13 13.3284 -638.955
    endloop
  endfacet
  facet normal 0 -0.290415 0.956901
    outer loop
      vertex 13 13.0939 -639.026
      vertex 10 13.3284 -638.955
      vertex 10 13.0939 -639.026
    endloop
  endfacet
  facet normal 0 -0.881881 0.471473
    outer loop
      vertex 10 13.8893 -638.494
      vertex 13 14.0049 -638.278
      vertex 10 14.0049 -638.278
    endloop
  endfacet
  facet normal 0 -0.881881 0.471473
    outer loop
      vertex 13 14.0049 -638.278
      vertex 10 13.8893 -638.494
      vertex 13 13.8893 -638.494
    endloop
  endfacet
  facet normal 0 0.881936 -0.471369
    outer loop
      vertex 13 11.6952 -652.322
      vertex 6.22 11.8107 -652.106
      vertex 13 11.8107 -652.106
    endloop
  endfacet
  facet normal 0 0.881936 -0.471369
    outer loop
      vertex 6.22 11.8107 -652.106
      vertex 13 11.6952 -652.322
      vertex 6.22 11.6952 -652.322
    endloop
  endfacet
  facet normal 0 0.772965 -0.634449
    outer loop
      vertex 13 11.8107 -652.106
      vertex 6.22 11.9661 -651.916
      vertex 13 11.9661 -651.916
    endloop
  endfacet
  facet normal 0 0.772965 -0.634449
    outer loop
      vertex 6.22 11.9661 -651.916
      vertex 13 11.8107 -652.106
      vertex 6.22 11.8107 -652.106
    endloop
  endfacet
  facet normal 0 0.290187 -0.95697
    outer loop
      vertex 6.22 12.3716 -651.645
      vertex 13 12.6061 -651.574
      vertex 13 12.3716 -651.645
    endloop
  endfacet
  facet normal 0 0.290187 -0.95697
    outer loop
      vertex 13 12.6061 -651.574
      vertex 6.22 12.3716 -651.645
      vertex 6.22 12.6061 -651.574
    endloop
  endfacet
  facet normal 0 -0.471482 -0.881876
    outer loop
      vertex 6.22 13.3284 -651.645
      vertex 13 13.5445 -651.761
      vertex 13 13.3284 -651.645
    endloop
  endfacet
  facet normal -0 -0.471482 -0.881876
    outer loop
      vertex 13 13.5445 -651.761
      vertex 6.22 13.3284 -651.645
      vertex 6.22 13.5445 -651.761
    endloop
  endfacet
  facet normal 0 -0.956943 -0.290276
    outer loop
      vertex 6.22 14.076 -652.556
      vertex 13 14.0049 -652.322
      vertex 6.22 14.0049 -652.322
    endloop
  endfacet
  facet normal 0 -0.956943 -0.290276
    outer loop
      vertex 13 14.0049 -652.322
      vertex 6.22 14.076 -652.556
      vertex 13 14.076 -652.556
    endloop
  endfacet
  facet normal 0 0.995186 0.0980072
    outer loop
      vertex 13 11.624 -653.044
      vertex 6.22 11.6 -652.8
      vertex 13 11.6 -652.8
    endloop
  endfacet
  facet normal 0 0.995186 0.0980072
    outer loop
      vertex 6.22 11.6 -652.8
      vertex 13 11.624 -653.044
      vertex 6.22 11.624 -653.044
    endloop
  endfacet
  facet normal 0 0.634401 -0.773004
    outer loop
      vertex 6.22 11.9661 -651.916
      vertex 13 12.1555 -651.761
      vertex 13 11.9661 -651.916
    endloop
  endfacet
  facet normal 0 0.634401 -0.773004
    outer loop
      vertex 13 12.1555 -651.761
      vertex 6.22 11.9661 -651.916
      vertex 6.22 12.1555 -651.761
    endloop
  endfacet
  facet normal 0 -0.0981361 -0.995173
    outer loop
      vertex 6.22 12.85 -651.55
      vertex 13 13.0939 -651.574
      vertex 13 12.85 -651.55
    endloop
  endfacet
  facet normal -0 -0.0981361 -0.995173
    outer loop
      vertex 13 13.0939 -651.574
      vertex 6.22 12.85 -651.55
      vertex 6.22 13.0939 -651.574
    endloop
  endfacet
  facet normal 0 0.471482 -0.881876
    outer loop
      vertex 6.22 12.1555 -651.761
      vertex 13 12.3716 -651.645
      vertex 13 12.1555 -651.761
    endloop
  endfacet
  facet normal 0 0.471482 -0.881876
    outer loop
      vertex 13 12.3716 -651.645
      vertex 6.22 12.1555 -651.761
      vertex 6.22 12.3716 -651.645
    endloop
  endfacet
  facet normal 0 -0.995186 0.0980033
    outer loop
      vertex 6.22 14.076 -653.044
      vertex 13 14.1 -652.8
      vertex 6.22 14.1 -652.8
    endloop
  endfacet
  facet normal 0 -0.995186 0.0980033
    outer loop
      vertex 13 14.1 -652.8
      vertex 6.22 14.076 -653.044
      vertex 13 14.076 -653.044
    endloop
  endfacet
  facet normal 0 -0.881936 -0.471369
    outer loop
      vertex 6.22 14.0049 -652.322
      vertex 13 13.8893 -652.106
      vertex 6.22 13.8893 -652.106
    endloop
  endfacet
  facet normal 0 -0.881936 -0.471369
    outer loop
      vertex 13 13.8893 -652.106
      vertex 6.22 14.0049 -652.322
      vertex 13 14.0049 -652.322
    endloop
  endfacet
  facet normal 0 -0.634401 -0.773004
    outer loop
      vertex 6.22 13.5445 -651.761
      vertex 13 13.7339 -651.916
      vertex 13 13.5445 -651.761
    endloop
  endfacet
  facet normal -0 -0.634401 -0.773004
    outer loop
      vertex 13 13.7339 -651.916
      vertex 6.22 13.5445 -651.761
      vertex 6.22 13.7339 -651.916
    endloop
  endfacet
  facet normal 0 -0.290187 -0.95697
    outer loop
      vertex 6.22 13.0939 -651.574
      vertex 13 13.3284 -651.645
      vertex 13 13.0939 -651.574
    endloop
  endfacet
  facet normal -0 -0.290187 -0.95697
    outer loop
      vertex 13 13.3284 -651.645
      vertex 6.22 13.0939 -651.574
      vertex 6.22 13.3284 -651.645
    endloop
  endfacet
  facet normal 0 -0.772965 -0.634449
    outer loop
      vertex 6.22 13.8893 -652.106
      vertex 13 13.7339 -651.916
      vertex 6.22 13.7339 -651.916
    endloop
  endfacet
  facet normal 0 -0.772965 -0.634449
    outer loop
      vertex 13 13.7339 -651.916
      vertex 6.22 13.8893 -652.106
      vertex 13 13.8893 -652.106
    endloop
  endfacet
  facet normal 0 0.995183 -0.0980315
    outer loop
      vertex 13 11.6 -652.8
      vertex 6.22 11.624 -652.556
      vertex 13 11.624 -652.556
    endloop
  endfacet
  facet normal 0 0.995183 -0.0980315
    outer loop
      vertex 6.22 11.624 -652.556
      vertex 13 11.6 -652.8
      vertex 6.22 11.6 -652.8
    endloop
  endfacet
  facet normal 0 0.956943 0.290276
    outer loop
      vertex 13 11.6952 -653.278
      vertex 6.22 11.624 -653.044
      vertex 13 11.624 -653.044
    endloop
  endfacet
  facet normal 0 0.956943 0.290276
    outer loop
      vertex 6.22 11.624 -653.044
      vertex 13 11.6952 -653.278
      vertex 6.22 11.6952 -653.278
    endloop
  endfacet
  facet normal 0 -0.956943 0.290276
    outer loop
      vertex 6.22 14.0049 -653.278
      vertex 13 14.076 -653.044
      vertex 6.22 14.076 -653.044
    endloop
  endfacet
  facet normal 0 -0.956943 0.290276
    outer loop
      vertex 13 14.076 -653.044
      vertex 6.22 14.0049 -653.278
      vertex 13 14.0049 -653.278
    endloop
  endfacet
  facet normal -0 0.634401 0.773004
    outer loop
      vertex 6.22 12.1555 -653.839
      vertex 13 11.9661 -653.684
      vertex 13 12.1555 -653.839
    endloop
  endfacet
  facet normal 0 0.634401 0.773004
    outer loop
      vertex 13 11.9661 -653.684
      vertex 6.22 12.1555 -653.839
      vertex 6.22 11.9661 -653.684
    endloop
  endfacet
  facet normal 0 0.956943 -0.290276
    outer loop
      vertex 13 11.624 -652.556
      vertex 6.22 11.6952 -652.322
      vertex 13 11.6952 -652.322
    endloop
  endfacet
  facet normal 0 0.956943 -0.290276
    outer loop
      vertex 6.22 11.6952 -652.322
      vertex 13 11.624 -652.556
      vertex 6.22 11.624 -652.556
    endloop
  endfacet
  facet normal 0 0.0981365 -0.995173
    outer loop
      vertex 6.22 12.6061 -651.574
      vertex 13 12.85 -651.55
      vertex 13 12.6061 -651.574
    endloop
  endfacet
  facet normal 0 0.0981365 -0.995173
    outer loop
      vertex 13 12.85 -651.55
      vertex 6.22 12.6061 -651.574
      vertex 6.22 12.85 -651.55
    endloop
  endfacet
  facet normal 0 -0.995184 -0.0980276
    outer loop
      vertex 6.22 14.1 -652.8
      vertex 13 14.076 -652.556
      vertex 6.22 14.076 -652.556
    endloop
  endfacet
  facet normal 0 -0.995184 -0.0980276
    outer loop
      vertex 13 14.076 -652.556
      vertex 6.22 14.1 -652.8
      vertex 13 14.1 -652.8
    endloop
  endfacet
  facet normal 0 0.881881 0.471473
    outer loop
      vertex 13 11.8107 -653.494
      vertex 6.22 11.6952 -653.278
      vertex 13 11.6952 -653.278
    endloop
  endfacet
  facet normal 0 0.881881 0.471473
    outer loop
      vertex 6.22 11.6952 -653.278
      vertex 13 11.8107 -653.494
      vertex 6.22 11.8107 -653.494
    endloop
  endfacet
  facet normal -0 0.0978898 0.995197
    outer loop
      vertex 6.22 12.85 -654.05
      vertex 13 12.6061 -654.026
      vertex 13 12.85 -654.05
    endloop
  endfacet
  facet normal 0 0.0978898 0.995197
    outer loop
      vertex 13 12.6061 -654.026
      vertex 6.22 12.85 -654.05
      vertex 6.22 12.6061 -654.026
    endloop
  endfacet
  facet normal -0 0.290415 0.956901
    outer loop
      vertex 6.22 12.6061 -654.026
      vertex 13 12.3716 -653.955
      vertex 13 12.6061 -654.026
    endloop
  endfacet
  facet normal 0 0.290415 0.956901
    outer loop
      vertex 13 12.3716 -653.955
      vertex 6.22 12.6061 -654.026
      vertex 6.22 12.3716 -653.955
    endloop
  endfacet
  facet normal -0 0.471288 0.881979
    outer loop
      vertex 6.22 12.3716 -653.955
      vertex 13 12.1555 -653.839
      vertex 13 12.3716 -653.955
    endloop
  endfacet
  facet normal 0 0.471288 0.881979
    outer loop
      vertex 13 12.1555 -653.839
      vertex 6.22 12.3716 -653.955
      vertex 6.22 12.1555 -653.839
    endloop
  endfacet
  facet normal 0 -0.773065 0.634326
    outer loop
      vertex 6.22 13.7339 -653.684
      vertex 13 13.8893 -653.494
      vertex 6.22 13.8893 -653.494
    endloop
  endfacet
  facet normal 0 -0.773065 0.634326
    outer loop
      vertex 13 13.8893 -653.494
      vertex 6.22 13.7339 -653.684
      vertex 13 13.7339 -653.684
    endloop
  endfacet
  facet normal 0 -0.881881 0.471473
    outer loop
      vertex 6.22 13.8893 -653.494
      vertex 13 14.0049 -653.278
      vertex 6.22 14.0049 -653.278
    endloop
  endfacet
  facet normal 0 -0.881881 0.471473
    outer loop
      vertex 13 14.0049 -653.278
      vertex 6.22 13.8893 -653.494
      vertex 13 13.8893 -653.494
    endloop
  endfacet
  facet normal 0 -0.634401 0.773004
    outer loop
      vertex 6.22 13.7339 -653.684
      vertex 13 13.5445 -653.839
      vertex 13 13.7339 -653.684
    endloop
  endfacet
  facet normal 0 -0.634401 0.773004
    outer loop
      vertex 13 13.5445 -653.839
      vertex 6.22 13.7339 -653.684
      vertex 6.22 13.5445 -653.839
    endloop
  endfacet
  facet normal 0 -0.0978894 0.995197
    outer loop
      vertex 6.22 13.0939 -654.026
      vertex 13 12.85 -654.05
      vertex 13 13.0939 -654.026
    endloop
  endfacet
  facet normal 0 -0.0978894 0.995197
    outer loop
      vertex 13 12.85 -654.05
      vertex 6.22 13.0939 -654.026
      vertex 6.22 12.85 -654.05
    endloop
  endfacet
  facet normal 0 -0.290415 0.956901
    outer loop
      vertex 6.22 13.3284 -653.955
      vertex 13 13.0939 -654.026
      vertex 13 13.3284 -653.955
    endloop
  endfacet
  facet normal 0 -0.290415 0.956901
    outer loop
      vertex 13 13.0939 -654.026
      vertex 6.22 13.3284 -653.955
      vertex 6.22 13.0939 -654.026
    endloop
  endfacet
  facet normal 0 -0.471288 0.881979
    outer loop
      vertex 6.22 13.5445 -653.839
      vertex 13 13.3284 -653.955
      vertex 13 13.5445 -653.839
    endloop
  endfacet
  facet normal 0 -0.471288 0.881979
    outer loop
      vertex 13 13.3284 -653.955
      vertex 6.22 13.5445 -653.839
      vertex 6.22 13.3284 -653.955
    endloop
  endfacet
  facet normal 0 0.773065 0.634326
    outer loop
      vertex 13 11.9661 -653.684
      vertex 6.22 11.8107 -653.494
      vertex 13 11.8107 -653.494
    endloop
  endfacet
  facet normal 0 0.773065 0.634326
    outer loop
      vertex 6.22 11.8107 -653.494
      vertex 13 11.9661 -653.684
      vertex 6.22 11.9661 -653.684
    endloop
  endfacet
  facet normal 0 0.881936 -0.471369
    outer loop
      vertex 13 21.6952 -637.322
      vertex 10 21.8107 -637.106
      vertex 13 21.8107 -637.106
    endloop
  endfacet
  facet normal 0 0.881936 -0.471369
    outer loop
      vertex 10 21.8107 -637.106
      vertex 13 21.6952 -637.322
      vertex 10 21.6952 -637.322
    endloop
  endfacet
  facet normal 0 0.956942 -0.29028
    outer loop
      vertex 13 21.624 -637.556
      vertex 10 21.6952 -637.322
      vertex 13 21.6952 -637.322
    endloop
  endfacet
  facet normal 0 0.956942 -0.29028
    outer loop
      vertex 10 21.6952 -637.322
      vertex 13 21.624 -637.556
      vertex 10 21.624 -637.556
    endloop
  endfacet
  facet normal 0 0.471483 -0.881875
    outer loop
      vertex 10 22.1555 -636.761
      vertex 13 22.3716 -636.645
      vertex 13 22.1555 -636.761
    endloop
  endfacet
  facet normal 0 0.471483 -0.881875
    outer loop
      vertex 13 22.3716 -636.645
      vertex 10 22.1555 -636.761
      vertex 10 22.3716 -636.645
    endloop
  endfacet
  facet normal 0 -0.290187 -0.95697
    outer loop
      vertex 10 23.0939 -636.574
      vertex 13 23.3284 -636.645
      vertex 13 23.0939 -636.574
    endloop
  endfacet
  facet normal -0 -0.290187 -0.95697
    outer loop
      vertex 13 23.3284 -636.645
      vertex 10 23.0939 -636.574
      vertex 10 23.3284 -636.645
    endloop
  endfacet
  facet normal 0 -0.881936 -0.471369
    outer loop
      vertex 10 24.0048 -637.322
      vertex 13 23.8893 -637.106
      vertex 10 23.8893 -637.106
    endloop
  endfacet
  facet normal 0 -0.881936 -0.471369
    outer loop
      vertex 13 23.8893 -637.106
      vertex 10 24.0048 -637.322
      vertex 13 24.0048 -637.322
    endloop
  endfacet
  facet normal 0 0.995186 0.0979995
    outer loop
      vertex 13 21.624 -638.044
      vertex 10 21.6 -637.8
      vertex 13 21.6 -637.8
    endloop
  endfacet
  facet normal 0 0.995186 0.0979995
    outer loop
      vertex 10 21.6 -637.8
      vertex 13 21.624 -638.044
      vertex 10 21.624 -638.044
    endloop
  endfacet
  facet normal 0 0.772965 -0.634449
    outer loop
      vertex 13 21.8107 -637.106
      vertex 10 21.9661 -636.916
      vertex 13 21.9661 -636.916
    endloop
  endfacet
  facet normal 0 0.772965 -0.634449
    outer loop
      vertex 10 21.9661 -636.916
      vertex 13 21.8107 -637.106
      vertex 10 21.8107 -637.106
    endloop
  endfacet
  facet normal 0 0.0981357 -0.995173
    outer loop
      vertex 10 22.6061 -636.574
      vertex 13 22.85 -636.55
      vertex 13 22.6061 -636.574
    endloop
  endfacet
  facet normal 0 0.0981357 -0.995173
    outer loop
      vertex 13 22.85 -636.55
      vertex 10 22.6061 -636.574
      vertex 10 22.85 -636.55
    endloop
  endfacet
  facet normal 0 0.634401 -0.773004
    outer loop
      vertex 10 21.9661 -636.916
      vertex 13 22.1555 -636.761
      vertex 13 21.9661 -636.916
    endloop
  endfacet
  facet normal 0 0.634401 -0.773004
    outer loop
      vertex 13 22.1555 -636.761
      vertex 10 21.9661 -636.916
      vertex 10 22.1555 -636.761
    endloop
  endfacet
  facet normal 0 -0.995183 -0.0980315
    outer loop
      vertex 10 24.1 -637.8
      vertex 13 24.076 -637.556
      vertex 10 24.076 -637.556
    endloop
  endfacet
  facet normal 0 -0.995183 -0.0980315
    outer loop
      vertex 13 24.076 -637.556
      vertex 10 24.1 -637.8
      vertex 13 24.1 -637.8
    endloop
  endfacet
  facet normal 0 -0.772965 -0.634449
    outer loop
      vertex 10 23.8893 -637.106
      vertex 13 23.7339 -636.916
      vertex 10 23.7339 -636.916
    endloop
  endfacet
  facet normal 0 -0.772965 -0.634449
    outer loop
      vertex 13 23.7339 -636.916
      vertex 10 23.8893 -637.106
      vertex 13 23.8893 -637.106
    endloop
  endfacet
  facet normal 0 -0.471483 -0.881875
    outer loop
      vertex 10 23.3284 -636.645
      vertex 13 23.5445 -636.761
      vertex 13 23.3284 -636.645
    endloop
  endfacet
  facet normal -0 -0.471483 -0.881875
    outer loop
      vertex 13 23.5445 -636.761
      vertex 10 23.3284 -636.645
      vertex 10 23.5445 -636.761
    endloop
  endfacet
  facet normal 0 -0.0981365 -0.995173
    outer loop
      vertex 10 22.85 -636.55
      vertex 13 23.0939 -636.574
      vertex 13 22.85 -636.55
    endloop
  endfacet
  facet normal -0 -0.0981365 -0.995173
    outer loop
      vertex 13 23.0939 -636.574
      vertex 10 22.85 -636.55
      vertex 10 23.0939 -636.574
    endloop
  endfacet
  facet normal 0 -0.634401 -0.773004
    outer loop
      vertex 10 23.5445 -636.761
      vertex 13 23.7339 -636.916
      vertex 13 23.5445 -636.761
    endloop
  endfacet
  facet normal -0 -0.634401 -0.773004
    outer loop
      vertex 13 23.7339 -636.916
      vertex 10 23.5445 -636.761
      vertex 10 23.7339 -636.916
    endloop
  endfacet
  facet normal 0 0.995184 -0.0980238
    outer loop
      vertex 13 21.6 -637.8
      vertex 10 21.624 -637.556
      vertex 13 21.624 -637.556
    endloop
  endfacet
  facet normal 0 0.995184 -0.0980238
    outer loop
      vertex 10 21.624 -637.556
      vertex 13 21.6 -637.8
      vertex 10 21.6 -637.8
    endloop
  endfacet
  facet normal 0 0.956942 0.29028
    outer loop
      vertex 13 21.6952 -638.278
      vertex 10 21.624 -638.044
      vertex 13 21.624 -638.044
    endloop
  endfacet
  facet normal 0 0.956942 0.29028
    outer loop
      vertex 10 21.624 -638.044
      vertex 13 21.6952 -638.278
      vertex 10 21.6952 -638.278
    endloop
  endfacet
  facet normal 0 -0.634401 0.773004
    outer loop
      vertex 10 23.7339 -638.684
      vertex 13 23.5445 -638.839
      vertex 13 23.7339 -638.684
    endloop
  endfacet
  facet normal 0 -0.634401 0.773004
    outer loop
      vertex 13 23.5445 -638.839
      vertex 10 23.7339 -638.684
      vertex 10 23.5445 -638.839
    endloop
  endfacet
  facet normal 0 -0.881881 0.471473
    outer loop
      vertex 10 23.8893 -638.494
      vertex 13 24.0048 -638.278
      vertex 10 24.0048 -638.278
    endloop
  endfacet
  facet normal 0 -0.881881 0.471473
    outer loop
      vertex 13 24.0048 -638.278
      vertex 10 23.8893 -638.494
      vertex 13 23.8893 -638.494
    endloop
  endfacet
  facet normal 0 0.290187 -0.95697
    outer loop
      vertex 10 22.3716 -636.645
      vertex 13 22.6061 -636.574
      vertex 13 22.3716 -636.645
    endloop
  endfacet
  facet normal 0 0.290187 -0.95697
    outer loop
      vertex 13 22.6061 -636.574
      vertex 10 22.3716 -636.645
      vertex 10 22.6061 -636.574
    endloop
  endfacet
  facet normal 0 -0.956942 -0.29028
    outer loop
      vertex 10 24.076 -637.556
      vertex 13 24.0048 -637.322
      vertex 10 24.0048 -637.322
    endloop
  endfacet
  facet normal 0 -0.956942 -0.29028
    outer loop
      vertex 13 24.0048 -637.322
      vertex 10 24.076 -637.556
      vertex 13 24.076 -637.556
    endloop
  endfacet
  facet normal -0 0.097889 0.995197
    outer loop
      vertex 10 22.85 -639.05
      vertex 13 22.6061 -639.026
      vertex 13 22.85 -639.05
    endloop
  endfacet
  facet normal 0 0.097889 0.995197
    outer loop
      vertex 13 22.6061 -639.026
      vertex 10 22.85 -639.05
      vertex 10 22.6061 -639.026
    endloop
  endfacet
  facet normal 0 -0.773065 0.634326
    outer loop
      vertex 10 23.7339 -638.684
      vertex 13 23.8893 -638.494
      vertex 10 23.8893 -638.494
    endloop
  endfacet
  facet normal 0 -0.773065 0.634326
    outer loop
      vertex 13 23.8893 -638.494
      vertex 10 23.7339 -638.684
      vertex 13 23.7339 -638.684
    endloop
  endfacet
  facet normal -0 0.290415 0.956901
    outer loop
      vertex 10 22.6061 -639.026
      vertex 13 22.3716 -638.955
      vertex 13 22.6061 -639.026
    endloop
  endfacet
  facet normal 0 0.290415 0.956901
    outer loop
      vertex 13 22.3716 -638.955
      vertex 10 22.6061 -639.026
      vertex 10 22.3716 -638.955
    endloop
  endfacet
  facet normal -0 0.471289 0.881979
    outer loop
      vertex 10 22.3716 -638.955
      vertex 13 22.1555 -638.839
      vertex 13 22.3716 -638.955
    endloop
  endfacet
  facet normal 0 0.471289 0.881979
    outer loop
      vertex 13 22.1555 -638.839
      vertex 10 22.3716 -638.955
      vertex 10 22.1555 -638.839
    endloop
  endfacet
  facet normal 0 0.773065 0.634326
    outer loop
      vertex 13 21.9661 -638.684
      vertex 10 21.8107 -638.494
      vertex 13 21.8107 -638.494
    endloop
  endfacet
  facet normal 0 0.773065 0.634326
    outer loop
      vertex 10 21.8107 -638.494
      vertex 13 21.9661 -638.684
      vertex 10 21.9661 -638.684
    endloop
  endfacet
  facet normal -0 0.634401 0.773004
    outer loop
      vertex 10 22.1555 -638.839
      vertex 13 21.9661 -638.684
      vertex 13 22.1555 -638.839
    endloop
  endfacet
  facet normal 0 0.634401 0.773004
    outer loop
      vertex 13 21.9661 -638.684
      vertex 10 22.1555 -638.839
      vertex 10 21.9661 -638.684
    endloop
  endfacet
  facet normal 0 0.881881 0.471473
    outer loop
      vertex 13 21.8107 -638.494
      vertex 10 21.6952 -638.278
      vertex 13 21.6952 -638.278
    endloop
  endfacet
  facet normal 0 0.881881 0.471473
    outer loop
      vertex 10 21.6952 -638.278
      vertex 13 21.8107 -638.494
      vertex 10 21.8107 -638.494
    endloop
  endfacet
  facet normal 0 -0.290415 0.956901
    outer loop
      vertex 10 23.3284 -638.955
      vertex 13 23.0939 -639.026
      vertex 13 23.3284 -638.955
    endloop
  endfacet
  facet normal 0 -0.290415 0.956901
    outer loop
      vertex 13 23.0939 -639.026
      vertex 10 23.3284 -638.955
      vertex 10 23.0939 -639.026
    endloop
  endfacet
  facet normal 0 -0.956942 0.29028
    outer loop
      vertex 10 24.0048 -638.278
      vertex 13 24.076 -638.044
      vertex 10 24.076 -638.044
    endloop
  endfacet
  facet normal 0 -0.956942 0.29028
    outer loop
      vertex 13 24.076 -638.044
      vertex 10 24.0048 -638.278
      vertex 13 24.0048 -638.278
    endloop
  endfacet
  facet normal 0 -0.995186 0.0980072
    outer loop
      vertex 10 24.076 -638.044
      vertex 13 24.1 -637.8
      vertex 10 24.1 -637.8
    endloop
  endfacet
  facet normal 0 -0.995186 0.0980072
    outer loop
      vertex 13 24.1 -637.8
      vertex 10 24.076 -638.044
      vertex 13 24.076 -638.044
    endloop
  endfacet
  facet normal 0 -0.0978898 0.995197
    outer loop
      vertex 10 23.0939 -639.026
      vertex 13 22.85 -639.05
      vertex 13 23.0939 -639.026
    endloop
  endfacet
  facet normal 0 -0.0978898 0.995197
    outer loop
      vertex 13 22.85 -639.05
      vertex 10 23.0939 -639.026
      vertex 10 22.85 -639.05
    endloop
  endfacet
  facet normal 0 -0.471289 0.881979
    outer loop
      vertex 10 23.5445 -638.839
      vertex 13 23.3284 -638.955
      vertex 13 23.5445 -638.839
    endloop
  endfacet
  facet normal 0 -0.471289 0.881979
    outer loop
      vertex 13 23.3284 -638.955
      vertex 10 23.5445 -638.839
      vertex 10 23.3284 -638.955
    endloop
  endfacet
  facet normal 0 0.471483 -0.881875
    outer loop
      vertex 6.22 22.1555 -651.761
      vertex 13 22.3716 -651.645
      vertex 13 22.1555 -651.761
    endloop
  endfacet
  facet normal 0 0.471483 -0.881875
    outer loop
      vertex 13 22.3716 -651.645
      vertex 6.22 22.1555 -651.761
      vertex 6.22 22.3716 -651.645
    endloop
  endfacet
  facet normal 0 -0.290415 0.956901
    outer loop
      vertex 6.22 23.3284 -653.955
      vertex 13 23.0939 -654.026
      vertex 13 23.3284 -653.955
    endloop
  endfacet
  facet normal 0 -0.290415 0.956901
    outer loop
      vertex 13 23.0939 -654.026
      vertex 6.22 23.3284 -653.955
      vertex 6.22 23.0939 -654.026
    endloop
  endfacet
  facet normal 0 -0.290187 -0.95697
    outer loop
      vertex 6.22 23.0939 -651.574
      vertex 13 23.3284 -651.645
      vertex 13 23.0939 -651.574
    endloop
  endfacet
  facet normal -0 -0.290187 -0.95697
    outer loop
      vertex 13 23.3284 -651.645
      vertex 6.22 23.0939 -651.574
      vertex 6.22 23.3284 -651.645
    endloop
  endfacet
  facet normal 0 -0.881936 -0.471369
    outer loop
      vertex 6.22 24.0048 -652.322
      vertex 13 23.8893 -652.106
      vertex 6.22 23.8893 -652.106
    endloop
  endfacet
  facet normal 0 -0.881936 -0.471369
    outer loop
      vertex 13 23.8893 -652.106
      vertex 6.22 24.0048 -652.322
      vertex 13 24.0048 -652.322
    endloop
  endfacet
  facet normal 0 0.881936 -0.471369
    outer loop
      vertex 13 21.6952 -652.322
      vertex 6.22 21.8107 -652.106
      vertex 13 21.8107 -652.106
    endloop
  endfacet
  facet normal 0 0.881936 -0.471369
    outer loop
      vertex 6.22 21.8107 -652.106
      vertex 13 21.6952 -652.322
      vertex 6.22 21.6952 -652.322
    endloop
  endfacet
  facet normal 0 0.772965 -0.634449
    outer loop
      vertex 13 21.8107 -652.106
      vertex 6.22 21.9661 -651.916
      vertex 13 21.9661 -651.916
    endloop
  endfacet
  facet normal 0 0.772965 -0.634449
    outer loop
      vertex 6.22 21.9661 -651.916
      vertex 13 21.8107 -652.106
      vertex 6.22 21.8107 -652.106
    endloop
  endfacet
  facet normal 0 0.634401 -0.773004
    outer loop
      vertex 6.22 21.9661 -651.916
      vertex 13 22.1555 -651.761
      vertex 13 21.9661 -651.916
    endloop
  endfacet
  facet normal 0 0.634401 -0.773004
    outer loop
      vertex 13 22.1555 -651.761
      vertex 6.22 21.9661 -651.916
      vertex 6.22 22.1555 -651.761
    endloop
  endfacet
  facet normal 0 0.290187 -0.95697
    outer loop
      vertex 6.22 22.3716 -651.645
      vertex 13 22.6061 -651.574
      vertex 13 22.3716 -651.645
    endloop
  endfacet
  facet normal 0 0.290187 -0.95697
    outer loop
      vertex 13 22.6061 -651.574
      vertex 6.22 22.3716 -651.645
      vertex 6.22 22.6061 -651.574
    endloop
  endfacet
  facet normal 0 -0.0981365 -0.995173
    outer loop
      vertex 6.22 22.85 -651.55
      vertex 13 23.0939 -651.574
      vertex 13 22.85 -651.55
    endloop
  endfacet
  facet normal -0 -0.0981365 -0.995173
    outer loop
      vertex 13 23.0939 -651.574
      vertex 6.22 22.85 -651.55
      vertex 6.22 23.0939 -651.574
    endloop
  endfacet
  facet normal 0 -0.995183 -0.0980315
    outer loop
      vertex 6.22 24.1 -652.8
      vertex 13 24.076 -652.556
      vertex 6.22 24.076 -652.556
    endloop
  endfacet
  facet normal 0 -0.995183 -0.0980315
    outer loop
      vertex 13 24.076 -652.556
      vertex 6.22 24.1 -652.8
      vertex 13 24.1 -652.8
    endloop
  endfacet
  facet normal 0 -0.772965 -0.634449
    outer loop
      vertex 6.22 23.8893 -652.106
      vertex 13 23.7339 -651.916
      vertex 6.22 23.7339 -651.916
    endloop
  endfacet
  facet normal 0 -0.772965 -0.634449
    outer loop
      vertex 13 23.7339 -651.916
      vertex 6.22 23.8893 -652.106
      vertex 13 23.8893 -652.106
    endloop
  endfacet
  facet normal 0 -0.471483 -0.881875
    outer loop
      vertex 6.22 23.3284 -651.645
      vertex 13 23.5445 -651.761
      vertex 13 23.3284 -651.645
    endloop
  endfacet
  facet normal -0 -0.471483 -0.881875
    outer loop
      vertex 13 23.5445 -651.761
      vertex 6.22 23.3284 -651.645
      vertex 6.22 23.5445 -651.761
    endloop
  endfacet
  facet normal 0 -0.634401 -0.773004
    outer loop
      vertex 6.22 23.5445 -651.761
      vertex 13 23.7339 -651.916
      vertex 13 23.5445 -651.761
    endloop
  endfacet
  facet normal -0 -0.634401 -0.773004
    outer loop
      vertex 13 23.7339 -651.916
      vertex 6.22 23.5445 -651.761
      vertex 6.22 23.7339 -651.916
    endloop
  endfacet
  facet normal 0 0.995184 -0.0980238
    outer loop
      vertex 13 21.6 -652.8
      vertex 6.22 21.624 -652.556
      vertex 13 21.624 -652.556
    endloop
  endfacet
  facet normal 0 0.995184 -0.0980238
    outer loop
      vertex 6.22 21.624 -652.556
      vertex 13 21.6 -652.8
      vertex 6.22 21.6 -652.8
    endloop
  endfacet
  facet normal -0 0.097889 0.995197
    outer loop
      vertex 6.22 22.85 -654.05
      vertex 13 22.6061 -654.026
      vertex 13 22.85 -654.05
    endloop
  endfacet
  facet normal 0 0.097889 0.995197
    outer loop
      vertex 13 22.6061 -654.026
      vertex 6.22 22.85 -654.05
      vertex 6.22 22.6061 -654.026
    endloop
  endfacet
  facet normal -0 0.290415 0.956901
    outer loop
      vertex 6.22 22.6061 -654.026
      vertex 13 22.3716 -653.955
      vertex 13 22.6061 -654.026
    endloop
  endfacet
  facet normal 0 0.290415 0.956901
    outer loop
      vertex 13 22.3716 -653.955
      vertex 6.22 22.6061 -654.026
      vertex 6.22 22.3716 -653.955
    endloop
  endfacet
  facet normal -0 0.471289 0.881979
    outer loop
      vertex 6.22 22.3716 -653.955
      vertex 13 22.1555 -653.839
      vertex 13 22.3716 -653.955
    endloop
  endfacet
  facet normal 0 0.471289 0.881979
    outer loop
      vertex 13 22.1555 -653.839
      vertex 6.22 22.3716 -653.955
      vertex 6.22 22.1555 -653.839
    endloop
  endfacet
  facet normal 0 0.773065 0.634326
    outer loop
      vertex 13 21.9661 -653.684
      vertex 6.22 21.8107 -653.494
      vertex 13 21.8107 -653.494
    endloop
  endfacet
  facet normal 0 0.773065 0.634326
    outer loop
      vertex 6.22 21.8107 -653.494
      vertex 13 21.9661 -653.684
      vertex 6.22 21.9661 -653.684
    endloop
  endfacet
  facet normal 0 -0.0978898 0.995197
    outer loop
      vertex 6.22 23.0939 -654.026
      vertex 13 22.85 -654.05
      vertex 13 23.0939 -654.026
    endloop
  endfacet
  facet normal 0 -0.0978898 0.995197
    outer loop
      vertex 13 22.85 -654.05
      vertex 6.22 23.0939 -654.026
      vertex 6.22 22.85 -654.05
    endloop
  endfacet
  facet normal 0 -0.634401 0.773004
    outer loop
      vertex 6.22 23.7339 -653.684
      vertex 13 23.5445 -653.839
      vertex 13 23.7339 -653.684
    endloop
  endfacet
  facet normal 0 -0.634401 0.773004
    outer loop
      vertex 13 23.5445 -653.839
      vertex 6.22 23.7339 -653.684
      vertex 6.22 23.5445 -653.839
    endloop
  endfacet
  facet normal 0 -0.881881 0.471473
    outer loop
      vertex 6.22 23.8893 -653.494
      vertex 13 24.0048 -653.278
      vertex 6.22 24.0048 -653.278
    endloop
  endfacet
  facet normal 0 -0.881881 0.471473
    outer loop
      vertex 13 24.0048 -653.278
      vertex 6.22 23.8893 -653.494
      vertex 13 23.8893 -653.494
    endloop
  endfacet
  facet normal 0 -0.995186 0.0980072
    outer loop
      vertex 6.22 24.076 -653.044
      vertex 13 24.1 -652.8
      vertex 6.22 24.1 -652.8
    endloop
  endfacet
  facet normal 0 -0.995186 0.0980072
    outer loop
      vertex 13 24.1 -652.8
      vertex 6.22 24.076 -653.044
      vertex 13 24.076 -653.044
    endloop
  endfacet
  facet normal 0 -0.773065 0.634326
    outer loop
      vertex 6.22 23.7339 -653.684
      vertex 13 23.8893 -653.494
      vertex 6.22 23.8893 -653.494
    endloop
  endfacet
  facet normal 0 -0.773065 0.634326
    outer loop
      vertex 13 23.8893 -653.494
      vertex 6.22 23.7339 -653.684
      vertex 13 23.7339 -653.684
    endloop
  endfacet
  facet normal 0 0.956942 -0.29028
    outer loop
      vertex 13 21.624 -652.556
      vertex 6.22 21.6952 -652.322
      vertex 13 21.6952 -652.322
    endloop
  endfacet
  facet normal 0 0.956942 -0.29028
    outer loop
      vertex 6.22 21.6952 -652.322
      vertex 13 21.624 -652.556
      vertex 6.22 21.624 -652.556
    endloop
  endfacet
  facet normal 0 0.0981357 -0.995173
    outer loop
      vertex 6.22 22.6061 -651.574
      vertex 13 22.85 -651.55
      vertex 13 22.6061 -651.574
    endloop
  endfacet
  facet normal 0 0.0981357 -0.995173
    outer loop
      vertex 13 22.85 -651.55
      vertex 6.22 22.6061 -651.574
      vertex 6.22 22.85 -651.55
    endloop
  endfacet
  facet normal 0 -0.956942 -0.29028
    outer loop
      vertex 6.22 24.076 -652.556
      vertex 13 24.0048 -652.322
      vertex 6.22 24.0048 -652.322
    endloop
  endfacet
  facet normal 0 -0.956942 -0.29028
    outer loop
      vertex 13 24.0048 -652.322
      vertex 6.22 24.076 -652.556
      vertex 13 24.076 -652.556
    endloop
  endfacet
  facet normal 0 0.956942 0.29028
    outer loop
      vertex 13 21.6952 -653.278
      vertex 6.22 21.624 -653.044
      vertex 13 21.624 -653.044
    endloop
  endfacet
  facet normal 0 0.956942 0.29028
    outer loop
      vertex 6.22 21.624 -653.044
      vertex 13 21.6952 -653.278
      vertex 6.22 21.6952 -653.278
    endloop
  endfacet
  facet normal -0 0.634401 0.773004
    outer loop
      vertex 6.22 22.1555 -653.839
      vertex 13 21.9661 -653.684
      vertex 13 22.1555 -653.839
    endloop
  endfacet
  facet normal 0 0.634401 0.773004
    outer loop
      vertex 13 21.9661 -653.684
      vertex 6.22 22.1555 -653.839
      vertex 6.22 21.9661 -653.684
    endloop
  endfacet
  facet normal 0 0.881881 0.471473
    outer loop
      vertex 13 21.8107 -653.494
      vertex 6.22 21.6952 -653.278
      vertex 13 21.6952 -653.278
    endloop
  endfacet
  facet normal 0 0.881881 0.471473
    outer loop
      vertex 6.22 21.6952 -653.278
      vertex 13 21.8107 -653.494
      vertex 6.22 21.8107 -653.494
    endloop
  endfacet
  facet normal 0 -0.471289 0.881979
    outer loop
      vertex 6.22 23.5445 -653.839
      vertex 13 23.3284 -653.955
      vertex 13 23.5445 -653.839
    endloop
  endfacet
  facet normal 0 -0.471289 0.881979
    outer loop
      vertex 13 23.3284 -653.955
      vertex 6.22 23.5445 -653.839
      vertex 6.22 23.3284 -653.955
    endloop
  endfacet
  facet normal 0 -0.956942 0.29028
    outer loop
      vertex 6.22 24.0048 -653.278
      vertex 13 24.076 -653.044
      vertex 6.22 24.076 -653.044
    endloop
  endfacet
  facet normal 0 -0.956942 0.29028
    outer loop
      vertex 13 24.076 -653.044
      vertex 6.22 24.0048 -653.278
      vertex 13 24.0048 -653.278
    endloop
  endfacet
  facet normal 0 0.995186 0.0979995
    outer loop
      vertex 13 21.624 -653.044
      vertex 6.22 21.6 -652.8
      vertex 13 21.6 -652.8
    endloop
  endfacet
  facet normal 0 0.995186 0.0979995
    outer loop
      vertex 6.22 21.6 -652.8
      vertex 13 21.624 -653.044
      vertex 6.22 21.624 -653.044
    endloop
  endfacet
endsolid OpenSCAD_Model
